<?xml version="1.0" encoding="utf-8"?>
<svg version="1.1" xmlns:xlink="http://www.w3.org/1999/xlink" width="12px" height="12px" viewBox="3275 430.5  12 12" xmlns="http://www.w3.org/2000/svg">
  <path d="M 3281 430.5  C 3284.36 430.5  3287 433.14  3287 436.5  C 3287 439.86  3284.36 442.5  3281 442.5  C 3277.64 442.5  3275 439.86  3275 436.5  C 3275 433.14  3277.64 430.5  3281 430.5  Z " fill-rule="nonzero" fill="#ffffff" stroke="none" />
  <path d="M 3281 431  C 3284.08 431  3286.5 433.42  3286.5 436.5  C 3286.5 439.58  3284.08 442  3281 442  C 3277.92 442  3275.5 439.58  3275.5 436.5  C 3275.5 433.42  3277.92 431  3281 431  Z " stroke-width="1" stroke="#797979" fill="none" />
  <path d="M 3281 439.5  C 3279.32 439.5  3278 438.18  3278 436.5  C 3278 434.82  3279.32 433.5  3281 433.5  C 3282.68 433.5  3284 434.82  3284 436.5  C 3284 438.18  3282.68 439.5  3281 439.5  " fill-rule="nonzero" fill="#797979" stroke="none" />
</svg>