<?xml version="1.0" encoding="utf-8"?>
<svg version="1.1" xmlns:xlink="http://www.w3.org/1999/xlink" width="12px" height="12px" viewBox="3275 468.5  12 12" xmlns="http://www.w3.org/2000/svg">
  <path d="M 3281 468.5  C 3284.36 468.5  3287 471.14  3287 474.5  C 3287 477.86  3284.36 480.5  3281 480.5  C 3277.64 480.5  3275 477.86  3275 474.5  C 3275 471.14  3277.64 468.5  3281 468.5  Z " fill-rule="nonzero" fill="#ffffff" stroke="none" />
  <path d="M 3281 469  C 3284.08 469  3286.5 471.42  3286.5 474.5  C 3286.5 477.58  3284.08 480  3281 480  C 3277.92 480  3275.5 477.58  3275.5 474.5  C 3275.5 471.42  3277.92 469  3281 469  Z " stroke-width="1" stroke="#797979" fill="none" />
  <path d="M 3281 477.5  C 3279.32 477.5  3278 476.18  3278 474.5  C 3278 472.82  3279.32 471.5  3281 471.5  C 3282.68 471.5  3284 472.82  3284 474.5  C 3284 476.18  3282.68 477.5  3281 477.5  " fill-rule="nonzero" fill="#797979" stroke="none" />
</svg>