<?xml version="1.0" encoding="utf-8"?>
<svg version="1.1" xmlns:xlink="http://www.w3.org/1999/xlink" width="12px" height="12px" viewBox="3802 468.5  12 12" xmlns="http://www.w3.org/2000/svg">
  <path d="M 3808 468.5  C 3811.36 468.5  3814 471.14  3814 474.5  C 3814 477.86  3811.36 480.5  3808 480.5  C 3804.64 480.5  3802 477.86  3802 474.5  C 3802 471.14  3804.64 468.5  3808 468.5  Z " fill-rule="nonzero" fill="#ffffff" stroke="none" />
  <path d="M 3808 469  C 3811.08 469  3813.5 471.42  3813.5 474.5  C 3813.5 477.58  3811.08 480  3808 480  C 3804.92 480  3802.5 477.58  3802.5 474.5  C 3802.5 471.42  3804.92 469  3808 469  Z " stroke-width="1" stroke="#797979" fill="none" />
  <path d="M 3808 477.5  C 3806.32 477.5  3805 476.18  3805 474.5  C 3805 472.82  3806.32 471.5  3808 471.5  C 3809.68 471.5  3811 472.82  3811 474.5  C 3811 476.18  3809.68 477.5  3808 477.5  " fill-rule="nonzero" fill="#797979" stroke="none" />
</svg>