<?xml version="1.0" encoding="utf-8"?>
<svg version="1.1" xmlns:xlink="http://www.w3.org/1999/xlink" width="12px" height="12px" viewBox="3802 431.5  12 12" xmlns="http://www.w3.org/2000/svg">
  <path d="M 3808 431.5  C 3811.36 431.5  3814 434.14  3814 437.5  C 3814 440.86  3811.36 443.5  3808 443.5  C 3804.64 443.5  3802 440.86  3802 437.5  C 3802 434.14  3804.64 431.5  3808 431.5  Z " fill-rule="nonzero" fill="#ffffff" stroke="none" />
  <path d="M 3808 432  C 3811.08 432  3813.5 434.42  3813.5 437.5  C 3813.5 440.58  3811.08 443  3808 443  C 3804.92 443  3802.5 440.58  3802.5 437.5  C 3802.5 434.42  3804.92 432  3808 432  Z " stroke-width="1" stroke="#797979" fill="none" />
  <path d="M 3808 440.5  C 3806.32 440.5  3805 439.18  3805 437.5  C 3805 435.82  3806.32 434.5  3808 434.5  C 3809.68 434.5  3811 435.82  3811 437.5  C 3811 439.18  3809.68 440.5  3808 440.5  " fill-rule="nonzero" fill="#797979" stroke="none" />
</svg>