<?xml version="1.0" encoding="utf-8"?>
<svg version="1.1" xmlns:xlink="http://www.w3.org/1999/xlink" width="40px" height="40px" xmlns="http://www.w3.org/2000/svg">
  <defs>
    <filter x="978px" y="438px" width="40px" height="40px" filterUnits="userSpaceOnUse" id="filter8">
      <feOffset dx="1" dy="1" in="SourceAlpha" result="shadowOffsetInner" />
      <feGaussianBlur stdDeviation="2.5" in="shadowOffsetInner" result="shadowGaussian" />
      <feComposite in2="shadowGaussian" operator="atop" in="SourceAlpha" result="shadowComposite" />
      <feColorMatrix type="matrix" values="0 0 0 0 0  0 0 0 0 0  0 0 0 0 0  0 0 0 0.698039215686274 0  " in="shadowComposite" />
    </filter>
    <g id="widget9">
      <path d="M 997 442  C 1005.4 442  1012 448.6  1012 457  C 1012 465.4  1005.4 472  997 472  C 988.6 472  982 465.4  982 457  C 982 448.6  988.6 442  997 442  Z " fill-rule="nonzero" fill="#009dd9" stroke="none" />
      <path d="M 997 442.5  C 1005.12 442.5  1011.5 448.88  1011.5 457  C 1011.5 465.12  1005.12 471.5  997 471.5  C 988.88 471.5  982.5 465.12  982.5 457  C 982.5 448.88  988.88 442.5  997 442.5  Z " stroke-width="1" stroke="#ffffff" fill="none" />
    </g>
  </defs>
  <g transform="matrix(1 0 0 1 -978 -438 )">
    <use xlink:href="#widget9" filter="url(#filter8)" />
    <use xlink:href="#widget9" />
  </g>
</svg>