<?xml version="1.0" encoding="utf-8"?>
<svg version="1.1" xmlns:xlink="http://www.w3.org/1999/xlink" width="22px" height="17px" xmlns="http://www.w3.org/2000/svg">
  <g transform="matrix(1 0 0 1 -331 -421 )">
    <path d="M 1.57142857142857 8.5  C 2.93824404761905 10.6755952380952  4.68563988095238 12.2566964285714  6.81361607142857 13.2433035714286  L 7.77120535714286 11.4598214285714  C 7.05915178571429 10.9285714285714  6.50260416666667 10.2581845238095  6.1015625 9.44866071428571  C 5.70052083333333 8.63913690476191  5.5 7.78323412698413  5.5 6.88095238095238  C 5.5 5.86061507936508  5.74962797619048 4.91195436507936  6.24888392857143 4.03497023809524  C 4.37462797619048 5.02157738095238  2.81547619047619 6.50992063492063  1.57142857142857 8.5  Z M 11.4174107142857 4.07291666666667  C 11.531994047619 3.95486111111111  11.5892857142857 3.81150793650794  11.5892857142857 3.64285714285714  C 11.5892857142857 3.47420634920635  11.531994047619 3.33085317460317  11.4174107142857 3.21279761904762  C 11.3028273809524 3.09474206349206  11.1636904761905 3.03571428571429  11 3.03571428571429  C 9.97693452380952 3.03571428571429  9.0991443452381 3.41307043650794  8.36662946428572 4.16778273809524  C 7.63411458333333 4.92249503968254  7.26785714285714 5.82688492063492  7.26785714285714 6.88095238095238  C 7.26785714285714 7.04960317460317  7.32514880952381 7.19295634920635  7.43973214285714 7.31101190476191  C 7.55431547619048 7.42906746031746  7.69345238095238 7.48809523809524  7.85714285714286 7.48809523809524  C 8.02083333333333 7.48809523809524  8.15997023809524 7.42906746031746  8.27455357142857 7.31101190476191  C 8.38913690476191 7.19295634920635  8.44642857142857 7.04960317460317  8.44642857142857 6.88095238095238  C 8.44642857142857 6.15575396825397  8.69605654761905 5.5359623015873  9.1953125 5.02157738095238  C 9.69456845238095 4.50719246031746  10.296130952381 4.25  11 4.25  C 11.1636904761905 4.25  11.3028273809524 4.19097222222222  11.4174107142857 4.07291666666667  Z M 15.8493303571429 0.885416666666667  C 15.9802827380952 0.969742063492062  16.0457589285714 1.08358134920635  16.0457589285714 1.22693452380952  C 16.0457589285714 1.2859623015873  16.0416666666667 1.32390873015873  16.0334821428571 1.34077380952381  C 15.1659226190476 2.93452380952381  13.8727678571429 5.32514880952381  12.1540178571429 8.51264880952381  C 10.4352678571429 11.7001488095238  9.14620535714286 14.0865575396825  8.28683035714286 15.671875  L 7.68526785714286 16.797619047619  C 7.60342261904762 16.9325396825397  7.48883928571429 17  7.34151785714286 17  C 7.24330357142857 17  6.69494047619048 16.7048611111111  5.69642857142857 16.1145833333333  C 5.56547619047619 16.0302579365079  5.5 15.9122023809524  5.5 15.7604166666667  C 5.5 15.6592261904762  5.68005952380952 15.2924107142857  6.04017857142857 14.6599702380952  C 4.86979166666667 14.1118551587302  3.79148065476191 13.3824404761905  2.80524553571429 12.4717261904762  C 1.81901041666667 11.5610119047619  0.96577380952381 10.5280257936508  0.245535714285714 9.37276785714286  C 0.0818452380952381 9.11135912698413  0 8.82043650793651  0 8.5  C 0 8.17956349206349  0.0818452380952381 7.88864087301587  0.245535714285714 7.62723214285714  C 1.49776785714286 5.64558531746032  3.05282738095238 4.0813492063492  4.91071428571429 2.93452380952381  C 6.76860119047619 1.78769841269841  8.7983630952381 1.21428571428571  11 1.21428571428571  C 11.7284226190476 1.21428571428571  12.4650297619048 1.2859623015873  13.2098214285714 1.42931547619048  L 13.8727678571429 0.202380952380952  C 13.9546130952381 0.0674603174603172  14.0691964285714 0  14.2165178571429 0  C 14.2574404761905 0  14.3311011904762 0.025297619047619  14.4375 0.0758928571428569  C 14.5438988095238 0.126488095238095  14.6707589285714 0.191840277777776  14.8180803571429 0.271949404761905  C 14.9654017857143 0.352058531746031  15.1004464285714 0.430059523809524  15.2232142857143 0.505952380952381  C 15.3459821428571 0.581845238095238  15.4748883928571 0.659846230158727  15.6099330357143 0.739955357142857  C 15.7449776785714 0.820064484126983  15.8247767857143 0.868551587301586  15.8493303571429 0.885416666666667  Z M 16.4017857142857 5.81845238095238  C 16.4672619047619 6.19791666666667  16.5 6.55208333333333  16.5 6.88095238095238  C 16.5 8.0530753968254  16.1767113095238 9.1218998015873  15.5301339285714 10.0874255952381  C 14.883556547619 11.0529513888889  14.0282738095238 11.7465277777778  12.9642857142857 12.1681547619048  L 16.4017857142857 5.81845238095238  Z M 21.7544642857143 7.62723214285714  C 21.9181547619048 7.91393849206349  22 8.20486111111111  22 8.5  C 22 8.79513888888889  21.9181547619048 9.08606150793651  21.7544642857143 9.37276785714286  C 21.4352678571429 9.9124503968254  20.9892113095238 10.5238095238095  20.4162946428571 11.2068452380952  C 19.1886160714286 12.6572420634921  17.7665550595238 13.7829861111111  16.1501116071429 14.5840773809524  C 14.5336681547619 15.3851686507937  12.8169642857143 15.7857142857143  11 15.7857142857143  L 11.9084821428571 14.1160714285714  C 13.6436011904762 13.9642857142857  15.2498139880952 13.3866567460317  16.7271205357143 12.3831845238095  C 18.2044270833333 11.3797123015873  19.438244047619 10.0853174603175  20.4285714285714 8.5  C 19.4873511904762 6.9905753968254  18.3333333333333 5.75099206349206  16.9665178571429 4.78125  L 17.7399553571429 3.36458333333333  C 18.5174851190476 3.90426587301587  19.2643229166667 4.54935515873016  19.98046875 5.29985119047619  C 20.6966145833333 6.05034722222222  21.2879464285714 6.82614087301587  21.7544642857143 7.62723214285714  Z " fill-rule="nonzero" fill="#000000" stroke="none" transform="matrix(1 0 0 1 331 421 )" />
  </g>
</svg>