<?xml version="1.0" encoding="utf-8"?>
<svg version="1.1" xmlns:xlink="http://www.w3.org/1999/xlink" width="25px" height="16px" xmlns="http://www.w3.org/2000/svg">
  <g transform="matrix(1 0 0 1 -331 -464 )">
    <path d="M 18.5616629464286 12.5347222222222  C 20.4264322916667 11.4097222222222  21.9773065476191 9.89814814814815  23.2142857142857 8  C 21.8005952380952 5.81481481481481  20.0288318452381 4.18055555555556  17.8989955357143 3.09722222222222  C 18.4663318452381 4.06018518518518  18.75 5.10185185185185  18.75 6.22222222222222  C 18.75 7.93518518518518  18.1384858630952 9.40046296296296  16.9154575892857 10.6180555555556  C 15.6924293154762 11.8356481481481  14.2206101190476 12.4444444444444  12.5 12.4444444444444  C 10.7793898809524 12.4444444444444  9.30757068452381 11.8356481481481  8.08454241071429 10.6180555555556  C 6.86151413690476 9.40046296296296  6.25 7.93518518518518  6.25 6.22222222222222  C 6.25 5.10185185185185  6.53366815476191 4.06018518518518  7.10100446428571 3.09722222222222  C 4.97116815476191 4.18055555555556  3.19940476190476 5.81481481481481  1.78571428571429 8  C 3.02269345238095 9.89814814814815  4.57356770833333 11.4097222222222  6.43833705357143 12.5347222222222  C 8.30310639880953 13.6597222222222  10.3236607142857 14.2222222222222  12.5 14.2222222222222  C 14.6763392857143 14.2222222222222  16.6968936011905 13.6597222222222  18.5616629464286 12.5347222222222  Z M 12.9743303571429 3.13888888888889  C 13.1045386904762 3.00925925925926  13.1696428571429 2.85185185185185  13.1696428571429 2.66666666666667  C 13.1696428571429 2.48148148148148  13.1045386904762 2.32407407407407  12.9743303571429 2.19444444444444  C 12.8441220238095 2.06481481481481  12.6860119047619 2  12.5 2  C 11.3374255952381 2  10.3399367559524 2.41435185185185  9.50753348214286 3.24305555555556  C 8.67513020833333 4.07175925925926  8.25892857142857 5.06481481481481  8.25892857142857 6.22222222222222  C 8.25892857142857 6.40740740740741  8.32403273809524 6.56481481481481  8.45424107142857 6.69444444444444  C 8.58444940476191 6.82407407407407  8.74255952380953 6.88888888888889  8.92857142857143 6.88888888888889  C 9.11458333333333 6.88888888888889  9.27269345238095 6.82407407407407  9.40290178571429 6.69444444444444  C 9.53311011904762 6.56481481481481  9.59821428571429 6.40740740740741  9.59821428571429 6.22222222222222  C 9.59821428571429 5.42592592592593  9.88188244047619 4.74537037037037  10.44921875 4.18055555555556  C 11.0165550595238 3.61574074074074  11.7001488095238 3.33333333333333  12.5 3.33333333333333  C 12.6860119047619 3.33333333333333  12.8441220238095 3.26851851851852  12.9743303571429 3.13888888888889  Z M 24.7209821428571 7.04166666666667  C 24.9069940476191 7.36574074074074  25 7.68518518518518  25 8  C 25 8.31481481481481  24.9069940476191 8.63425925925926  24.7209821428571 8.95833333333333  C 23.4188988095238 11.087962962963  21.6680617559524 12.7939814814815  19.4684709821429 14.0763888888889  C 17.2688802083333 15.3587962962963  14.946056547619 16  12.5 16  C 10.053943452381 16  7.73111979166667 15.3564814814815  5.53152901785714 14.0694444444444  C 3.33193824404762 12.7824074074074  1.58110119047619 11.0787037037037  0.279017857142857 8.95833333333333  C 0.0930059523809524 8.63425925925926  0 8.31481481481481  0 8  C 0 7.68518518518518  0.0930059523809524 7.36574074074074  0.279017857142857 7.04166666666667  C 1.58110119047619 4.9212962962963  3.33193824404762 3.21759259259259  5.53152901785714 1.93055555555556  C 7.73111979166667 0.643518518518517  10.053943452381 0  12.5 0  C 14.946056547619 0  17.2688802083333 0.643518518518517  19.4684709821429 1.93055555555556  C 21.6680617559524 3.21759259259259  23.4188988095238 4.9212962962963  24.7209821428571 7.04166666666667  Z " fill-rule="nonzero" fill="#000000" stroke="none" transform="matrix(1 0 0 1 331 464 )" />
  </g>
</svg>