<?xml version="1.0" encoding="utf-8"?>
<svg version="1.1" xmlns:xlink="http://www.w3.org/1999/xlink" width="19px" height="19px" xmlns="http://www.w3.org/2000/svg">
  <g transform="matrix(1 0 0 1 -337 -326 )">
    <path d="M 19 9.5  C 19 4.25216346153843  14.7478365384615 0  9.5 0  C 4.25216346153851 0  0 4.25216346153843  0 9.5  C 0 14.7478365384616  4.25216346153851 19  9.5 19  C 14.7478365384615 19  19 14.7478365384616  19 9.5  Z M 12.9391826923078 12.9391826923077  C 12.6560096153846 13.2269230769231  12.1901442307693 13.2269230769231  11.9069711538461 12.9391826923077  L 9.5 10.5322115384616  L 7.09302884615388 12.9391826923077  C 6.80985576923075 13.2223557692307  6.34399038461537 13.2223557692307  6.06081730769224 12.9391826923077  C 5.91923076923075 12.7975961538461  5.84615384615388 12.6103365384616  5.84615384615388 12.4230769230769  C 5.84615384615388 12.2358173076923  5.91923076923075 12.0485576923077  6.06081730769224 11.9069711538461  L 8.46778846153851 9.5  L 6.06081730769224 7.09302884615388  C 5.91923076923075 6.95144230769231  5.84615384615388 6.76418269230769  5.84615384615388 6.57692307692306  C 5.84615384615388 6.38966346153843  5.91923076923075 6.20240384615388  6.06081730769224 6.06081730769231  C 6.34399038461537 5.77764423076925  6.80985576923075 5.77764423076925  7.09302884615388 6.06081730769231  L 9.5 8.46778846153843  L 11.9069711538461 6.06081730769231  C 12.1901442307693 5.77764423076925  12.6560096153846 5.77764423076925  12.9391826923078 6.06081730769231  C 13.2223557692307 6.34399038461537  13.2223557692307 6.80985576923075  12.9391826923078 7.09302884615388  L 10.5322115384615 9.5  L 12.9391826923078 11.9069711538461  C 13.2223557692307 12.1901442307693  13.2223557692307 12.6560096153846  12.9391826923078 12.9391826923077  Z " fill-rule="nonzero" fill="#cccccc" stroke="none" transform="matrix(1 0 0 1 337 326 )" />
  </g>
</svg>