<?xml version="1.0" encoding="utf-8"?>
<svg version="1.1" xmlns:xlink="http://www.w3.org/1999/xlink" width="15px" height="15px" xmlns="http://www.w3.org/2000/svg">
  <g transform="matrix(1 0 0 1 -2532 -897 )">
    <path d="M 8.66210937499997 3.837890625  C 8.72070312499997 3.896484375  8.74999999999997 3.97135416666666  8.74999999999997 4.06249999999999  L 8.74999999999997 8.4375  C 8.74999999999997 8.52864583333333  8.72070312499997 8.60351562499999  8.66210937499997 8.66210937499999  C 8.60351562499997 8.72070312499999  8.52864583333337 8.74999999999999  8.4375 8.74999999999999  L 5.31250000000003 8.74999999999999  C 5.22135416666666 8.74999999999999  5.14648437499997 8.72070312499999  5.08789062499997 8.66210937499999  C 5.02929687499997 8.60351562499999  4.99999999999997 8.52864583333333  4.99999999999997 8.4375  L 4.99999999999997 7.81249999999999  C 4.99999999999997 7.72135416666666  5.02929687499997 7.646484375  5.08789062499997 7.587890625  C 5.14648437499997 7.529296875  5.22135416666666 7.5  5.31250000000003 7.5  L 7.5 7.5  L 7.5 4.06249999999999  C 7.5 3.97135416666666  7.529296875 3.896484375  7.587890625 3.837890625  C 7.646484375 3.779296875  7.72135416666669 3.75  7.81249999999997 3.75  L 8.4375 3.75  C 8.52864583333337 3.75  8.60351562499997 3.779296875  8.66210937499997 3.837890625  Z M 12.099609375 10.166015625  C 12.5748697916667 9.35221354166666  12.8125 8.46354166666667  12.8125 7.5  C 12.8125 6.53645833333333  12.5748697916667 5.64778645833334  12.099609375 4.833984375  C 11.6243489583333 4.02018229166666  10.9798177083333 3.37565104166666  10.166015625 2.900390625  C 9.35221354166666 2.42513020833334  8.46354166666663 2.18749999999999  7.5 2.18749999999999  C 6.53645833333337 2.18749999999999  5.64778645833334 2.42513020833334  4.833984375 2.900390625  C 4.02018229166666 3.37565104166666  3.37565104166666 4.02018229166666  2.900390625 4.833984375  C 2.42513020833334 5.64778645833334  2.18749999999997 6.53645833333333  2.18749999999997 7.5  C 2.18749999999997 8.46354166666667  2.42513020833334 9.35221354166666  2.900390625 10.166015625  C 3.37565104166666 10.9798177083333  4.02018229166666 11.6243489583333  4.833984375 12.099609375  C 5.64778645833334 12.5748697916667  6.53645833333337 12.8125  7.5 12.8125  C 8.46354166666663 12.8125  9.35221354166666 12.5748697916667  10.166015625 12.099609375  C 10.9798177083333 11.6243489583333  11.6243489583333 10.9798177083333  12.099609375 10.166015625  Z M 13.994140625 3.7353515625  C 14.6647135416667 4.88444010416666  15 6.13932291666666  15 7.5  C 15 8.86067708333334  14.6647135416667 10.1155598958333  13.994140625 11.2646484375  C 13.3235677083333 12.4137369791667  12.4137369791667 13.3235677083333  11.2646484375 13.994140625  C 10.1155598958333 14.6647135416667  8.86067708333331 15  7.5 15  C 6.13932291666669 15  4.88444010416666 14.6647135416667  3.7353515625 13.994140625  C 2.58626302083334 13.3235677083333  1.67643229166666 12.4137369791667  1.00585937500003 11.2646484375  C 0.335286458333314 10.1155598958333  0 8.86067708333334  0 7.5  C 0 6.13932291666666  0.335286458333314 4.88444010416666  1.00585937500003 3.7353515625  C 1.67643229166666 2.58626302083334  2.58626302083334 1.67643229166666  3.7353515625 1.00585937500001  C 4.88444010416666 0.335286458333336  6.13932291666669 0  7.5 0  C 8.86067708333331 0  10.1155598958333 0.335286458333336  11.2646484375 1.00585937500001  C 12.4137369791667 1.67643229166666  13.3235677083333 2.58626302083334  13.994140625 3.7353515625  Z " fill-rule="nonzero" fill="#cccccc" stroke="none" transform="matrix(1 0 0 1 2532 897 )" />
  </g>
</svg>