<?xml version="1.0" encoding="utf-8"?>
<svg version="1.1" xmlns:xlink="http://www.w3.org/1999/xlink" width="18px" height="18px" xmlns="http://www.w3.org/2000/svg">
  <g transform="matrix(1 0 0 1 -489 -476 )">
    <path d="M 18 9  C 18 4.02836538461543  13.9716346153846 0  9 0  C 4.02836538461539 0  0 4.02836538461543  0 9  C 0 13.9716346153846  4.02836538461539 18  9 18  C 13.9716346153846 18  18 13.9716346153846  18 9  Z M 13.5995192307692 6.26105769230771  C 13.6774038461539 6.33461538461543  13.6774038461539 6.44278846153843  13.6081730769231 6.51201923076928  L 7.82307692307693 12.3230769230769  L 7.81875 12.3230769230769  C 7.74519230769232 12.3966346153846  7.54615384615386 12.5610576923077  7.31682692307693 12.5610576923077  C 7.15240384615386 12.5610576923077  6.96634615384614 12.4701923076923  6.81057692307693 12.3144230769231  L 4.3875 9.89134615384614  C 4.31826923076923 9.82211538461543  4.31826923076923 9.71394230769229  4.3875 9.64471153846157  L 5.1576923076923 8.87451923076928  C 5.1923076923077 8.83990384615386  5.23557692307693 8.82259615384614  5.27884615384616 8.82259615384614  C 5.32211538461539 8.82259615384614  5.36538461538462 8.83990384615386  5.4 8.87451923076928  L 7.32115384615386 10.7956730769231  L 12.6 5.47788461538457  C 12.6346153846154 5.44326923076928  12.6778846153846 5.42596153846157  12.7211538461539 5.42596153846157  C 12.76875 5.42596153846157  12.8120192307692 5.44326923076928  12.8423076923077 5.47788461538457  L 13.5995192307692 6.26105769230771  Z " fill-rule="nonzero" fill="#29a1f7" stroke="none" transform="matrix(1 0 0 1 489 476 )" />
  </g>
</svg>