<?xml version="1.0" encoding="utf-8"?>
<svg version="1.1" xmlns:xlink="http://www.w3.org/1999/xlink" width="95px" height="92px" xmlns="http://www.w3.org/2000/svg">
  <g transform="matrix(1 0 0 1 -14 -982 )">
    <path d="M 14 982  L 109 982  L 109 1074  L 14 1074  L 14 982  " fill-rule="nonzero" fill="#cccccc" stroke="none" />
    <path d="M 20 988  L 103 988  L 103 1068  L 20 1068  L 20 988  " fill-rule="nonzero" fill="#ffffff" stroke="none" />
    <path d="M 70.3 1009.6  C 66.436 1009.6  63.4 1006.564  63.4 1002.7  C 63.4 998.836  66.436 995.8  70.3 995.8  C 74.164 995.8  77.2 998.836  77.2 1002.7  C 77.2 1006.564  74.164 1009.6  70.3 1009.6  " fill-rule="nonzero" fill="#cccccc" stroke="none" />
    <path d="M 23 1066  L 23 1024.75  L 42.5 1006  L 69.8 1022.42105263158  L 85.4 1017.25  L 101 1022.42105263158  L 101 1066  L 23 1066  " fill-rule="nonzero" fill="#169bd5" stroke="none" />
  </g>
</svg>