<?xml version="1.0" encoding="utf-8"?>
<svg version="1.1" xmlns:xlink="http://www.w3.org/1999/xlink" width="20px" height="20px" xmlns="http://www.w3.org/2000/svg">
  <g transform="matrix(1 0 0 1 -262 -644 )">
    <path d="M 12.265625 12.265625  C 13.3193108974359 11.2119391025641  13.8461538461539 9.94391025641028  13.8461538461539 8.46153846153845  C 13.8461538461539 6.97916666666669  13.3193108974359 5.71113782051282  12.265625 4.65745192307691  C 11.2119391025641 3.60376602564105  9.94391025641028 3.07692307692309  8.46153846153845 3.07692307692309  C 6.97916666666669 3.07692307692309  5.71113782051282 3.60376602564105  4.65745192307691 4.65745192307691  C 3.60376602564105 5.71113782051282  3.07692307692309 6.97916666666669  3.07692307692309 8.46153846153845  C 3.07692307692309 9.94391025641028  3.60376602564105 11.2119391025641  4.65745192307691 12.265625  C 5.71113782051282 13.3193108974359  6.97916666666669 13.8461538461539  8.46153846153845 13.8461538461539  C 9.94391025641028 13.8461538461539  11.2119391025641 13.3193108974359  12.265625 12.265625  Z M 19.5552884615385 17.3798076923077  C 19.8517628205128 17.676282051282  20 18.036858974359  20 18.4615384615385  C 20 18.8782051282051  19.8477564102564 19.238782051282  19.5432692307692 19.5432692307692  C 19.238782051282 19.8477564102564  18.8782051282051 20  18.4615384615385 20  C 18.0288461538461 20  17.6682692307692 19.8477564102564  17.3798076923077 19.5432692307692  L 13.2572115384615 15.4326923076923  C 11.8229166666667 16.426282051282  10.2243589743589 16.9230769230769  8.46153846153845 16.9230769230769  C 7.31570512820514 16.9230769230769  6.21995192307691 16.7007211538461  5.17427884615387 16.2560096153846  C 4.12860576923077 15.8112980769231  3.22716346153845 15.2103365384615  2.46995192307691 14.453125  C 1.71274038461536 13.6959134615385  1.11177884615387 12.7944711538461  0.667067307692321 11.7487980769231  C 0.222355769230774 10.703125  0 9.60737179487177  0 8.46153846153845  C 0 7.31570512820514  0.222355769230774 6.21995192307691  0.667067307692321 5.17427884615387  C 1.11177884615387 4.12860576923077  1.71274038461536 3.22716346153845  2.46995192307691 2.46995192307691  C 3.22716346153845 1.71274038461536  4.12860576923077 1.11177884615387  5.17427884615387 0.667067307692321  C 6.21995192307691 0.222355769230774  7.31570512820514 0  8.46153846153845 0  C 9.60737179487182 0  10.703125 0.222355769230774  11.7487980769231 0.667067307692321  C 12.7944711538461 1.11177884615387  13.6959134615385 1.71274038461536  14.453125 2.46995192307691  C 15.2103365384615 3.22716346153845  15.8112980769231 4.12860576923077  16.2560096153846 5.17427884615387  C 16.7007211538461 6.21995192307691  16.9230769230769 7.31570512820514  16.9230769230769 8.46153846153845  C 16.9230769230769 10.2243589743589  16.426282051282 11.8229166666667  15.4326923076923 13.2572115384615  L 19.5552884615385 17.3798076923077  Z " fill-rule="nonzero" fill="#000000" stroke="none" fill-opacity="0.2" transform="matrix(1 0 0 1 262 644 )" />
  </g>
</svg>