<?xml version="1.0" encoding="utf-8"?>
<svg version="1.1" xmlns:xlink="http://www.w3.org/1999/xlink" width="19px" height="5px" xmlns="http://www.w3.org/2000/svg">
  <g transform="matrix(1 0 0 1 -1309 -166 )">
    <path d="M 4.80397727272727 0.364583333333333  C 5.05587121212121 0.607638888888887  5.18181818181818 0.902777777777777  5.18181818181818 1.25  L 5.18181818181818 3.75  C 5.18181818181818 4.09722222222222  5.05587121212121 4.39236111111111  4.80397727272727 4.63541666666667  C 4.55208333333333 4.87847222222222  4.24621212121212 5  3.88636363636364 5  L 1.29545454545455 5  C 0.935606060606061 5  0.629734848484849 4.87847222222222  0.377840909090909 4.63541666666667  C 0.12594696969697 4.39236111111111  0 4.09722222222222  0 3.75  L 0 1.25  C 0 0.902777777777777  0.12594696969697 0.607638888888887  0.377840909090909 0.364583333333333  C 0.629734848484849 0.121527777777777  0.935606060606061 0  1.29545454545455 0  L 3.88636363636364 0  C 4.24621212121212 0  4.55208333333333 0.121527777777777  4.80397727272727 0.364583333333333  Z M 11.7130681818182 0.364583333333333  C 11.9649621212121 0.607638888888887  12.0909090909091 0.902777777777777  12.0909090909091 1.25  L 12.0909090909091 3.75  C 12.0909090909091 4.09722222222222  11.9649621212121 4.39236111111111  11.7130681818182 4.63541666666667  C 11.4611742424242 4.87847222222222  11.155303030303 5  10.7954545454545 5  L 8.20454545454546 5  C 7.84469696969697 5  7.53882575757576 4.87847222222222  7.28693181818182 4.63541666666667  C 7.03503787878788 4.39236111111111  6.90909090909091 4.09722222222222  6.90909090909091 3.75  L 6.90909090909091 1.25  C 6.90909090909091 0.902777777777777  7.03503787878788 0.607638888888887  7.28693181818182 0.364583333333333  C 7.53882575757576 0.121527777777777  7.84469696969697 0  8.20454545454546 0  L 10.7954545454545 0  C 11.155303030303 0  11.4611742424242 0.121527777777777  11.7130681818182 0.364583333333333  Z M 18.6221590909091 0.364583333333333  C 18.874053030303 0.607638888888887  19 0.902777777777777  19 1.25  L 19 3.75  C 19 4.09722222222222  18.874053030303 4.39236111111111  18.6221590909091 4.63541666666667  C 18.3702651515152 4.87847222222222  18.0643939393939 5  17.7045454545455 5  L 15.1136363636364 5  C 14.7537878787879 5  14.4479166666667 4.87847222222222  14.1960227272727 4.63541666666667  C 13.9441287878788 4.39236111111111  13.8181818181818 4.09722222222222  13.8181818181818 3.75  L 13.8181818181818 1.25  C 13.8181818181818 0.902777777777777  13.9441287878788 0.607638888888887  14.1960227272727 0.364583333333333  C 14.4479166666667 0.121527777777777  14.7537878787879 0  15.1136363636364 0  L 17.7045454545455 0  C 18.0643939393939 0  18.3702651515152 0.121527777777777  18.6221590909091 0.364583333333333  Z " fill-rule="nonzero" fill="#000000" stroke="none" transform="matrix(1 0 0 1 1309 166 )" />
  </g>
</svg>