<?xml version="1.0" encoding="utf-8"?>
<svg version="1.1" xmlns:xlink="http://www.w3.org/1999/xlink" width="12px" height="22px" xmlns="http://www.w3.org/2000/svg">
  <g transform="matrix(1 0 0 1 -292 -955 )">
    <path d="M 11.7938144329897 10.4929859719439  C 11.9312714776632 10.6399465597862  12 10.8089512358049  12 11  C 12 11.1910487641951  11.9312714776632 11.3600534402138  11.7938144329897 11.5070140280561  L 2.18556701030928 21.7795591182365  C 2.04810996563574 21.9265197060788  1.89003436426117 22  1.71134020618557 22  C 1.53264604810997 22  1.3745704467354 21.9265197060788  1.23711340206186 21.7795591182365  L 0.206185567010309 20.6773547094188  C 0.0687285223367698 20.5303941215765  0 20.3613894455578  0 20.1703406813627  C 0 19.9792919171677  0.0687285223367698 19.810287241149  0.206185567010309 19.6633266533066  L 8.30927835051546 11  L 0.206185567010309 2.33667334669339  C 0.0687285223367698 2.18971275885103  0 2.02070808283233  0 1.82965931863728  C 0 1.63861055444221  0.0687285223367698 1.46960587842351  0.206185567010309 1.32264529058116  L 1.23711340206186 0.220440881763527  C 1.3745704467354 0.0734802939211749  1.53264604810997 0  1.71134020618557 0  C 1.89003436426117 0  2.04810996563574 0.0734802939211749  2.18556701030928 0.220440881763527  L 11.7938144329897 10.4929859719439  Z " fill-rule="nonzero" fill="#000000" stroke="none" transform="matrix(1 0 0 1 292 955 )" />
  </g>
</svg>