<?xml version="1.0" encoding="utf-8"?>
<svg version="1.1" xmlns:xlink="http://www.w3.org/1999/xlink" width="13px" height="13px" xmlns="http://www.w3.org/2000/svg">
  <g transform="matrix(1 0 0 1 -291 -426 )">
    <path d="M 12.5359732292248 0  C 12.6326454731363 0  12.7196504926566 0.0265997023809535  12.7969882877858 0.0797991071428578  C 12.9564974902398 0.195870535714286  13.0217512548801 0.35063244047619  12.9927495817066 0.544084821428572  L 11.1366424986057 11.6869419642857  C 11.1124744376278 11.8271949404762  11.0351366424986 11.9360119047619  10.9046291132181 12.0133928571429  C 10.83695854248 12.0520833333333  10.7620375534486 12.0714285714286  10.6798661461238 12.0714285714286  C 10.6266964119725 12.0714285714286  10.5686930656256 12.059337797619  10.5058561070831 12.03515625  L 7.22141662018963 10.6930803571429  L 5.46681539319576 12.8331473214286  C 5.3798103736754 12.9443824404762  5.26138687488381 13  5.11154489682097 13  C 5.04870793827849 13  4.99553820412716 12.9903273809524  4.95203569436698 12.9709821428571  C 4.86019706265105 12.9371279761905  4.78648447666853 12.8803013392857  4.73089793641941 12.8005022321429  C 4.67531139617029 12.720703125  4.64751812604573 12.6324404761905  4.64751812604573 12.5357142857143  L 4.64751812604573 10.00390625  L 10.9118795315114 2.32142857142857  L 3.1611823759063 9.03180803571429  L 0.297267150027886 7.85658482142857  C 0.118423498791597 7.78887648809524  0.0217512548800892 7.65587797619048  0.00725041829336308 7.45758928571429  C -0.00241680609778769 7.2641369047619  0.0749209890314185 7.12146577380952  0.239263803680982 7.02957589285714  L 12.3039598438371 0.0652901785714282  C 12.3764640267708 0.0217633928571422  12.4538018219 0  12.5359732292248 0  Z " fill-rule="nonzero" fill="#000000" stroke="none" transform="matrix(1 0 0 1 291 426 )" />
  </g>
</svg>