<?xml version="1.0" encoding="utf-8"?>
<svg version="1.1" xmlns:xlink="http://www.w3.org/1999/xlink" width="80px" height="79px" xmlns="http://www.w3.org/2000/svg">
  <g transform="matrix(1 0 0 1 -4104 -1458 )">
    <path d="M 4104 1458  L 4184 1458  L 4184 1537  L 4104 1537  L 4104 1458  " fill-rule="nonzero" fill="#cccccc" stroke="none" />
    <path d="M 4110 1464  L 4178 1464  L 4178 1531  L 4110 1531  L 4110 1464  " fill-rule="nonzero" fill="#ffffff" stroke="none" />
    <path d="M 4151.525 1481.7  C 4148.207 1481.7  4145.6 1479.093  4145.6 1475.775  C 4145.6 1472.457  4148.207 1469.85  4151.525 1469.85  C 4154.843 1469.85  4157.45 1472.457  4157.45 1475.775  C 4157.45 1479.093  4154.843 1481.7  4151.525 1481.7  " fill-rule="nonzero" fill="#cccccc" stroke="none" />
    <path d="M 4112 1529  L 4112 1494.35  L 4128 1478.6  L 4150.4 1491.6725  L 4163.2 1488.05  L 4176 1491.6725  L 4176 1529  L 4112 1529  " fill-rule="nonzero" fill="#169bd5" stroke="none" />
  </g>
</svg>