<?xml version="1.0" encoding="utf-8"?>
<svg version="1.1" xmlns:xlink="http://www.w3.org/1999/xlink" width="10px" height="10px" xmlns="http://www.w3.org/2000/svg">
  <g transform="matrix(1 0 0 1 -4164 -1471 )">
    <path d="M 9.76430976430976 7.47474747474747  C 9.92143658810325 7.63187429854096  10 7.82267115600449  10 8.04713804713805  C 10 8.27160493827161  9.92143658810325 8.46240179573513  9.76430976430976 8.61952861952862  L 8.61952861952862 9.76430976430976  C 8.46240179573513 9.92143658810325  8.2716049382716 10  8.04713804713805 10  C 7.82267115600449 10  7.63187429854097 9.92143658810325  7.47474747474747 9.76430976430976  L 5 7.28956228956229  L 2.52525252525253 9.76430976430976  C 2.36812570145903 9.92143658810325  2.17732884399551 10  1.95286195286195 10  C 1.7283950617284 10  1.53759820426487 9.92143658810325  1.38047138047138 9.76430976430976  L 0.235690235690236 8.61952861952862  C 0.0785634118967453 8.46240179573513  0 8.27160493827161  0 8.04713804713805  C 0 7.82267115600449  0.0785634118967453 7.63187429854096  0.235690235690236 7.47474747474747  L 2.71043771043771 5  L 0.235690235690236 2.52525252525253  C 0.0785634118967453 2.36812570145903  0 2.17732884399551  0 1.95286195286195  C 0 1.72839506172839  0.0785634118967453 1.53759820426487  0.235690235690236 1.38047138047138  L 1.38047138047138 0.235690235690236  C 1.53759820426487 0.0785634118967449  1.7283950617284 0  1.95286195286195 0  C 2.17732884399551 0  2.36812570145903 0.0785634118967449  2.52525252525253 0.235690235690236  L 5 2.71043771043771  L 7.47474747474747 0.235690235690236  C 7.63187429854097 0.0785634118967449  7.82267115600449 0  8.04713804713805 0  C 8.2716049382716 0  8.46240179573513 0.0785634118967449  8.61952861952862 0.235690235690236  L 9.76430976430976 1.38047138047138  C 9.92143658810325 1.53759820426487  10 1.72839506172839  10 1.95286195286195  C 10 2.17732884399551  9.92143658810325 2.36812570145903  9.76430976430976 2.52525252525253  L 7.28956228956229 5  L 9.76430976430976 7.47474747474747  Z " fill-rule="nonzero" fill="#000000" stroke="none" transform="matrix(1 0 0 1 4164 1471 )" />
  </g>
</svg>