<?xml version="1.0" encoding="utf-8"?>
<svg version="1.1" xmlns:xlink="http://www.w3.org/1999/xlink" width="16px" height="12px" xmlns="http://www.w3.org/2000/svg">
  <g transform="matrix(1 0 0 1 -262 -28 )">
    <path d="M 15.7109677419355 1.65656565656566  C 15.9036559139785 1.84511784511784  16 2.07407407407407  16 2.34343434343434  C 16 2.61279461279461  15.9036559139785 2.84175084175084  15.7109677419355 3.03030303030303  L 8.23741935483871 10.3434343434343  L 6.83354838709677 11.7171717171717  C 6.64086021505376 11.9057239057239  6.40688172043011 12  6.13161290322581 12  C 5.85634408602151 12  5.62236559139785 11.9057239057239  5.42967741935484 11.7171717171717  L 4.0258064516129 10.3434343434343  L 0.289032258064516 6.68686868686869  C 0.0963440860215055 6.4983164983165  0 6.26936026936027  0 6  C 0 5.73063973063973  0.0963440860215055 5.5016835016835  0.289032258064516 5.31313131313131  L 1.69290322580645 3.93939393939394  C 1.88559139784946 3.75084175084175  2.11956989247312 3.65656565656566  2.39483870967742 3.65656565656566  C 2.67010752688172 3.65656565656566  2.90408602150538 3.75084175084175  3.09677419354839 3.93939393939394  L 6.13161290322581 6.91919191919192  L 12.9032258064516 0.282828282828283  C 13.0959139784946 0.0942760942760938  13.3298924731183 0  13.6051612903226 0  C 13.8804301075269 0  14.1144086021505 0.0942760942760938  14.3070967741935 0.282828282828283  L 15.7109677419355 1.65656565656566  Z " fill-rule="nonzero" fill="#000000" stroke="none" transform="matrix(1 0 0 1 262 28 )" />
  </g>
</svg>