<?xml version="1.0" encoding="utf-8"?>
<svg version="1.1" xmlns:xlink="http://www.w3.org/1999/xlink" width="12px" height="12px" viewBox="181 421.5  12 12" xmlns="http://www.w3.org/2000/svg">
  <path d="M 187 421.5  C 190.36 421.5  193 424.14  193 427.5  C 193 430.86  190.36 433.5  187 433.5  C 183.64 433.5  181 430.86  181 427.5  C 181 424.14  183.64 421.5  187 421.5  Z " fill-rule="nonzero" fill="#ffffff" stroke="none" />
  <path d="M 187 422  C 190.08 422  192.5 424.42  192.5 427.5  C 192.5 430.58  190.08 433  187 433  C 183.92 433  181.5 430.58  181.5 427.5  C 181.5 424.42  183.92 422  187 422  Z " stroke-width="1" stroke="#797979" fill="none" />
  <path d="M 187 430.5  C 185.32 430.5  184 429.18  184 427.5  C 184 425.82  185.32 424.5  187 424.5  C 188.68 424.5  190 425.82  190 427.5  C 190 429.18  188.68 430.5  187 430.5  " fill-rule="nonzero" fill="#797979" stroke="none" />
</svg>