<?xml version="1.0" encoding="utf-8"?>
<svg version="1.1" xmlns:xlink="http://www.w3.org/1999/xlink" width="80px" height="80px" xmlns="http://www.w3.org/2000/svg">
  <g transform="matrix(1 0 0 1 -583 -2391 )">
    <path d="M 623 2391  C 645.4 2391  663 2408.6  663 2431  C 663 2453.4  645.4 2471  623 2471  C 600.6 2471  583 2453.4  583 2431  C 583 2408.6  600.6 2391  623 2391  Z " fill-rule="nonzero" fill="#ffffff" stroke="none" />
    <path d="M 623 2391.5  C 645.12 2391.5  662.5 2408.88  662.5 2431  C 662.5 2453.12  645.12 2470.5  623 2470.5  C 600.88 2470.5  583.5 2453.12  583.5 2431  C 583.5 2408.88  600.88 2391.5  623 2391.5  Z " stroke-width="1" stroke="#797979" fill="none" />
  </g>
</svg>