<?xml version="1.0" encoding="utf-8"?>
<svg version="1.1" xmlns:xlink="http://www.w3.org/1999/xlink" width="20px" height="30px" xmlns="http://www.w3.org/2000/svg">
  <g transform="matrix(1 0 0 1 -1719 -624 )">
    <path d="M 1729 652.95558796737  C 1725.2 645.857284902997  1719.5 641.598303064373  1719.5 634.5  C 1719.5 630.785714285714  1721.4 624.5  1729 624.5  C 1736.6 624.5  1738.5 630.785714285714  1738.5 634.5  C 1738.5 641.598303064373  1732.8 645.857284902997  1729 652.95558796737  Z " fill-rule="nonzero" fill="#999999" stroke="none" />
    <path d="M 1729 654  C 1725 646.5  1719 642  1719 634.5  C 1719 630.6  1721 624  1729 624  C 1737 624  1739 630.6  1739 634.5  C 1739 642  1733 646.5  1729 654  Z M 1729 651.91117593474  C 1732.6 645.214569805994  1738 641.196606128746  1738 634.5  C 1738 630.971428571429  1736.2 625  1729 625  C 1721.8 625  1720 630.971428571429  1720 634.5  C 1720 641.196606128746  1725.4 645.214569805994  1729 651.91117593474  Z " fill-rule="nonzero" fill="#ffffff" stroke="none" />
  </g>
</svg>