<?xml version="1.0" encoding="utf-8"?>
<svg version="1.1" xmlns:xlink="http://www.w3.org/1999/xlink" width="30px" height="30px" xmlns="http://www.w3.org/2000/svg">
  <g transform="matrix(1 0 0 1 -868 -612 )">
    <path d="M 883 613  C 890.84 613  897 619.16  897 627  C 897 634.84  890.84 641  883 641  C 875.16 641  869 634.84  869 627  C 869 619.16  875.16 613  883 613  Z " fill-rule="nonzero" fill="#ffffff" stroke="none" />
    <path d="M 883 613  C 890.84 613  897 619.16  897 627  C 897 634.84  890.84 641  883 641  C 875.16 641  869 634.84  869 627  C 869 619.16  875.16 613  883 613  Z " stroke-width="2" stroke="#e4e4e4" fill="none" />
  </g>
</svg>