<?xml version="1.0" encoding="utf-8"?>
<svg version="1.1" xmlns:xlink="http://www.w3.org/1999/xlink" width="12px" height="17px" xmlns="http://www.w3.org/2000/svg">
  <g transform="matrix(1 0 0 1 -406 -959 )">
    <path d="M 11.1477272727273 3  L 0.643465909090909 3  L 1.64914772727273 15.7028645833333  C 1.64914772727273 16.4200520833333  2.20738636363636 17  2.89772727272727 17  L 8.90625 17  C 9.59659090909091 17  10.1548295454545 16.4200520833333  10.1548295454545 15.7028645833333  L 11.1477272727273 3  Z M 4.06534090909091 14.5651041666667  L 3.26846590909091 14.5651041666667  L 2.98295454545455 4.25  L 3.77130681818182 4.25  L 4.06534090909091 14.5651041666667  Z M 6.26420454545455 4.25  L 6.26420454545455 14.5651041666667  L 5.49715909090909 14.5651041666667  L 5.49715909090909 4.25  L 6.26420454545455 4.25  Z M 8.77840909090909 4.25  L 8.49289772727273 14.5651041666667  L 7.70028409090909 14.5651041666667  L 7.99005681818182 4.25  L 8.77840909090909 4.25  Z M 11.7613636363636 2.390625  C 11.7613636363636 1.61145833333333  11.2329545454545 1.23958333333333  10.4829545454545 1.23958333333333  L 8.94886363636364 1.23958333333333  L 7.828125 0.221354166666667  C 7.67045454545455 0.0796875  7.47017045454546 0  7.265625 0  L 4.50426136363636 0  C 4.29545454545455 0  4.09090909090909 0.0796875  3.93323863636364 0.221354166666667  L 2.8125 1.23958333333333  L 1.27840909090909 1.23958333333333  C 0.528409090909091 1.23958333333333  0 1.61145833333333  0 2.390625  L 11.7613636363636 2.390625  Z " fill-rule="nonzero" fill="#606266" stroke="none" transform="matrix(1 0 0 1 406 959 )" />
  </g>
</svg>