<?xml version="1.0" encoding="utf-8"?>
<svg version="1.1" xmlns:xlink="http://www.w3.org/1999/xlink" width="12px" height="12px" viewBox="186 1889.5  12 12" xmlns="http://www.w3.org/2000/svg">
  <path d="M 192 1889.5  C 195.36 1889.5  198 1892.14  198 1895.5  C 198 1898.86  195.36 1901.5  192 1901.5  C 188.64 1901.5  186 1898.86  186 1895.5  C 186 1892.14  188.64 1889.5  192 1889.5  Z " fill-rule="nonzero" fill="#ffffff" stroke="none" />
  <path d="M 192 1890  C 195.08 1890  197.5 1892.42  197.5 1895.5  C 197.5 1898.58  195.08 1901  192 1901  C 188.92 1901  186.5 1898.58  186.5 1895.5  C 186.5 1892.42  188.92 1890  192 1890  Z " stroke-width="1" stroke="#797979" fill="none" />
  <path d="M 192 1898.5  C 190.32 1898.5  189 1897.18  189 1895.5  C 189 1893.82  190.32 1892.5  192 1892.5  C 193.68 1892.5  195 1893.82  195 1895.5  C 195 1897.18  193.68 1898.5  192 1898.5  " fill-rule="nonzero" fill="#797979" stroke="none" />
</svg>