<?xml version="1.0" encoding="utf-8"?>
<svg version="1.1" xmlns:xlink="http://www.w3.org/1999/xlink" width="12px" height="12px" viewBox="186 1817.5  12 12" xmlns="http://www.w3.org/2000/svg">
  <path d="M 192 1817.5  C 195.36 1817.5  198 1820.14  198 1823.5  C 198 1826.86  195.36 1829.5  192 1829.5  C 188.64 1829.5  186 1826.86  186 1823.5  C 186 1820.14  188.64 1817.5  192 1817.5  Z " fill-rule="nonzero" fill="#ffffff" stroke="none" />
  <path d="M 192 1818  C 195.08 1818  197.5 1820.42  197.5 1823.5  C 197.5 1826.58  195.08 1829  192 1829  C 188.92 1829  186.5 1826.58  186.5 1823.5  C 186.5 1820.42  188.92 1818  192 1818  Z " stroke-width="1" stroke="#797979" fill="none" />
  <path d="M 192 1826.5  C 190.32 1826.5  189 1825.18  189 1823.5  C 189 1821.82  190.32 1820.5  192 1820.5  C 193.68 1820.5  195 1821.82  195 1823.5  C 195 1825.18  193.68 1826.5  192 1826.5  " fill-rule="nonzero" fill="#797979" stroke="none" />
</svg>