<?xml version="1.0" encoding="utf-8"?>
<svg version="1.1" xmlns:xlink="http://www.w3.org/1999/xlink" width="12px" height="12px" viewBox="242 1889.5  12 12" xmlns="http://www.w3.org/2000/svg">
  <path d="M 248 1889.5  C 251.36 1889.5  254 1892.14  254 1895.5  C 254 1898.86  251.36 1901.5  248 1901.5  C 244.64 1901.5  242 1898.86  242 1895.5  C 242 1892.14  244.64 1889.5  248 1889.5  Z " fill-rule="nonzero" fill="#ffffff" stroke="none" />
  <path d="M 248 1890  C 251.08 1890  253.5 1892.42  253.5 1895.5  C 253.5 1898.58  251.08 1901  248 1901  C 244.92 1901  242.5 1898.58  242.5 1895.5  C 242.5 1892.42  244.92 1890  248 1890  Z " stroke-width="1" stroke="#797979" fill="none" />
  <path d="M 248 1898.5  C 246.32 1898.5  245 1897.18  245 1895.5  C 245 1893.82  246.32 1892.5  248 1892.5  C 249.68 1892.5  251 1893.82  251 1895.5  C 251 1897.18  249.68 1898.5  248 1898.5  " fill-rule="nonzero" fill="#797979" stroke="none" />
</svg>