<?xml version="1.0" encoding="utf-8"?>
<svg version="1.1" xmlns:xlink="http://www.w3.org/1999/xlink" width="12px" height="12px" viewBox="186 1852.5  12 12" xmlns="http://www.w3.org/2000/svg">
  <path d="M 192 1852.5  C 195.36 1852.5  198 1855.14  198 1858.5  C 198 1861.86  195.36 1864.5  192 1864.5  C 188.64 1864.5  186 1861.86  186 1858.5  C 186 1855.14  188.64 1852.5  192 1852.5  Z " fill-rule="nonzero" fill="#ffffff" stroke="none" />
  <path d="M 192 1853  C 195.08 1853  197.5 1855.42  197.5 1858.5  C 197.5 1861.58  195.08 1864  192 1864  C 188.92 1864  186.5 1861.58  186.5 1858.5  C 186.5 1855.42  188.92 1853  192 1853  Z " stroke-width="1" stroke="#797979" fill="none" />
  <path d="M 192 1861.5  C 190.32 1861.5  189 1860.18  189 1858.5  C 189 1856.82  190.32 1855.5  192 1855.5  C 193.68 1855.5  195 1856.82  195 1858.5  C 195 1860.18  193.68 1861.5  192 1861.5  " fill-rule="nonzero" fill="#797979" stroke="none" />
</svg>