<?xml version="1.0" encoding="utf-8"?>
<svg version="1.1" xmlns:xlink="http://www.w3.org/1999/xlink" width="12px" height="12px" viewBox="242 1852.5  12 12" xmlns="http://www.w3.org/2000/svg">
  <path d="M 248 1852.5  C 251.36 1852.5  254 1855.14  254 1858.5  C 254 1861.86  251.36 1864.5  248 1864.5  C 244.64 1864.5  242 1861.86  242 1858.5  C 242 1855.14  244.64 1852.5  248 1852.5  Z " fill-rule="nonzero" fill="#ffffff" stroke="none" />
  <path d="M 248 1853  C 251.08 1853  253.5 1855.42  253.5 1858.5  C 253.5 1861.58  251.08 1864  248 1864  C 244.92 1864  242.5 1861.58  242.5 1858.5  C 242.5 1855.42  244.92 1853  248 1853  Z " stroke-width="1" stroke="#797979" fill="none" />
  <path d="M 248 1861.5  C 246.32 1861.5  245 1860.18  245 1858.5  C 245 1856.82  246.32 1855.5  248 1855.5  C 249.68 1855.5  251 1856.82  251 1858.5  C 251 1860.18  249.68 1861.5  248 1861.5  " fill-rule="nonzero" fill="#797979" stroke="none" />
</svg>