<?xml version="1.0" encoding="utf-8"?>
<svg version="1.1" xmlns:xlink="http://www.w3.org/1999/xlink" width="12px" height="12px" viewBox="181 444.5  12 12" xmlns="http://www.w3.org/2000/svg">
  <path d="M 187 444.5  C 190.36 444.5  193 447.14  193 450.5  C 193 453.86  190.36 456.5  187 456.5  C 183.64 456.5  181 453.86  181 450.5  C 181 447.14  183.64 444.5  187 444.5  Z " fill-rule="nonzero" fill="#ffffff" stroke="none" />
  <path d="M 187 445  C 190.08 445  192.5 447.42  192.5 450.5  C 192.5 453.58  190.08 456  187 456  C 183.92 456  181.5 453.58  181.5 450.5  C 181.5 447.42  183.92 445  187 445  Z " stroke-width="1" stroke="#797979" fill="none" />
  <path d="M 187 453.5  C 185.32 453.5  184 452.18  184 450.5  C 184 448.82  185.32 447.5  187 447.5  C 188.68 447.5  190 448.82  190 450.5  C 190 452.18  188.68 453.5  187 453.5  " fill-rule="nonzero" fill="#797979" stroke="none" />
</svg>