<?xml version="1.0" encoding="utf-8"?>
<svg version="1.1" xmlns:xlink="http://www.w3.org/1999/xlink" width="12px" height="12px" viewBox="125 444.5  12 12" xmlns="http://www.w3.org/2000/svg">
  <path d="M 131 444.5  C 134.36 444.5  137 447.14  137 450.5  C 137 453.86  134.36 456.5  131 456.5  C 127.64 456.5  125 453.86  125 450.5  C 125 447.14  127.64 444.5  131 444.5  Z " fill-rule="nonzero" fill="#ffffff" stroke="none" />
  <path d="M 131 445  C 134.08 445  136.5 447.42  136.5 450.5  C 136.5 453.58  134.08 456  131 456  C 127.92 456  125.5 453.58  125.5 450.5  C 125.5 447.42  127.92 445  131 445  Z " stroke-width="1" stroke="#797979" fill="none" />
  <path d="M 131 453.5  C 129.32 453.5  128 452.18  128 450.5  C 128 448.82  129.32 447.5  131 447.5  C 132.68 447.5  134 448.82  134 450.5  C 134 452.18  132.68 453.5  131 453.5  " fill-rule="nonzero" fill="#797979" stroke="none" />
</svg>