<?xml version="1.0" encoding="utf-8"?>
<svg version="1.1" xmlns:xlink="http://www.w3.org/1999/xlink" width="12px" height="12px" viewBox="125 282.5  12 12" xmlns="http://www.w3.org/2000/svg">
  <path d="M 131 282.5  C 134.36 282.5  137 285.14  137 288.5  C 137 291.86  134.36 294.5  131 294.5  C 127.64 294.5  125 291.86  125 288.5  C 125 285.14  127.64 282.5  131 282.5  Z " fill-rule="nonzero" fill="#ffffff" stroke="none" />
  <path d="M 131 283  C 134.08 283  136.5 285.42  136.5 288.5  C 136.5 291.58  134.08 294  131 294  C 127.92 294  125.5 291.58  125.5 288.5  C 125.5 285.42  127.92 283  131 283  Z " stroke-width="1" stroke="#797979" fill="none" />
  <path d="M 131 291.5  C 129.32 291.5  128 290.18  128 288.5  C 128 286.82  129.32 285.5  131 285.5  C 132.68 285.5  134 286.82  134 288.5  C 134 290.18  132.68 291.5  131 291.5  " fill-rule="nonzero" fill="#797979" stroke="none" />
</svg>