<?xml version="1.0" encoding="utf-8"?>
<svg version="1.1" xmlns:xlink="http://www.w3.org/1999/xlink" width="12px" height="12px" viewBox="181 282.5  12 12" xmlns="http://www.w3.org/2000/svg">
  <path d="M 187 282.5  C 190.36 282.5  193 285.14  193 288.5  C 193 291.86  190.36 294.5  187 294.5  C 183.64 294.5  181 291.86  181 288.5  C 181 285.14  183.64 282.5  187 282.5  Z " fill-rule="nonzero" fill="#ffffff" stroke="none" />
  <path d="M 187 283  C 190.08 283  192.5 285.42  192.5 288.5  C 192.5 291.58  190.08 294  187 294  C 183.92 294  181.5 291.58  181.5 288.5  C 181.5 285.42  183.92 283  187 283  Z " stroke-width="1" stroke="#797979" fill="none" />
  <path d="M 187 291.5  C 185.32 291.5  184 290.18  184 288.5  C 184 286.82  185.32 285.5  187 285.5  C 188.68 285.5  190 286.82  190 288.5  C 190 290.18  188.68 291.5  187 291.5  " fill-rule="nonzero" fill="#797979" stroke="none" />
</svg>