<?xml version="1.0" encoding="utf-8"?>
<svg version="1.1" xmlns:xlink="http://www.w3.org/1999/xlink" width="6px" height="9px" xmlns="http://www.w3.org/2000/svg">
  <g transform="matrix(1 0 0 1 -406 -350 )">
    <path d="M 0.253333333333467 1.32838427947597  C -0.084444444444307 1.03755458515285  -0.084444444444307 0.558078602620101  0.253333333333467 0.25938864628822  C 0.586666666666588 -0.0353711790393096  1.13333333333321 -0.0353711790393096  1.46666666666661 0.25938864628822  L 5.70666666666657 4.02052401746725  C 6.0311111111112 4.30742358078602  6.03999999999996 4.7711790393013  5.73333333333339 5.06593886462883  L 1.55555555555557 8.77205240174674  C 1.38666666666668 8.92139737991268  1.1688888888888 8.99606986899562  0.946666666666533 8.99606986899562  C 0.728888888888923 8.99606986899562  0.506666666666661 8.92139737991268  0.342222222222153 8.77598253275109  C 0.00888888888875954 8.48122270742359  0.00444444444437977 8.00174672489084  0.342222222222153 7.70305676855896  L 3.89333333333343 4.51572052401746  L 0.253333333333467 1.32838427947597  Z " fill-rule="nonzero" fill="#606266" stroke="none" transform="matrix(1 0 0 1 406 350 )" />
  </g>
</svg>