<?xml version="1.0" encoding="utf-8"?>
<svg version="1.1" xmlns:xlink="http://www.w3.org/1999/xlink" width="11px" height="11px" xmlns="http://www.w3.org/2000/svg">
  <g transform="matrix(1 0 0 1 -950 -801 )">
    <path d="M 10.7020833333333 9.40729166666666  L 6.79479166666669 5.5  L 10.7020833333333 1.59270833333334  C 11.0572916666667 1.23750000000002  11.0572916666667 0.653124999999979  10.7020833333333 0.297916666666656  C 10.346875 -0.0572916666666667  9.76249999999998 -0.0572916666666667  9.40729166666666 0.297916666666656  L 5.5 4.20520833333331  L 1.59270833333334 0.297916666666656  C 1.23750000000002 -0.0572916666666667  0.653124999999979 -0.0572916666666667  0.297916666666656 0.297916666666656  C 0.120312500000021 0.475520833333344  0.0286458333333333 0.710416666666646  0.0286458333333333 0.9453125  C 0.0286458333333333 1.18020833333335  0.120312500000021 1.41510416666666  0.297916666666656 1.59270833333334  L 4.20520833333331 5.5  L 0.297916666666656 9.40729166666666  C 0.120312500000021 9.58489583333334  0.0286458333333333 9.81979166666665  0.0286458333333333 10.0546875  C 0.0286458333333333 10.2895833333334  0.120312500000021 10.5244791666667  0.297916666666656 10.7020833333333  C 0.653124999999979 11.0572916666667  1.23750000000002 11.0572916666667  1.59270833333334 10.7020833333333  L 5.5 6.79479166666669  L 9.40729166666666 10.7020833333333  C 9.76249999999998 11.0572916666667  10.346875 11.0572916666667  10.7020833333333 10.7020833333333  C 11.0572916666667 10.346875  11.0572916666667 9.76249999999998  10.7020833333333 9.40729166666666  Z " fill-rule="nonzero" fill="#606266" stroke="none" transform="matrix(1 0 0 1 950 801 )" />
  </g>
</svg>