<?xml version="1.0" encoding="utf-8"?>
<svg version="1.1" xmlns:xlink="http://www.w3.org/1999/xlink" width="9px" height="8px" xmlns="http://www.w3.org/2000/svg">
  <g transform="matrix(1 0 0 1 -903 -1139 )">
    <path d="M 8.75625000000001 6.84166666666666  L 5.55937500000002 4  L 8.75625000000001 1.15833333333334  C 9.046875 0.900000000000015  9.046875 0.474999999999985  8.75625000000001 0.216666666666659  C 8.46562500000002 -0.0416666666666667  7.98749999999998 -0.0416666666666667  7.69687499999999 0.216666666666659  L 4.5 3.05833333333332  L 1.30312500000001 0.216666666666659  C 1.01250000000002 -0.0416666666666667  0.534374999999983 -0.0416666666666667  0.243749999999991 0.216666666666659  C 0.0984375000000171 0.345833333333341  0.0234375 0.516666666666652  0.0234375 0.6875  C 0.0234375 0.858333333333348  0.0984375000000171 1.02916666666666  0.243749999999991 1.15833333333334  L 3.44062499999998 4  L 0.243749999999991 6.84166666666666  C 0.0984375000000171 6.97083333333334  0.0234375 7.14166666666665  0.0234375 7.3125  C 0.0234375 7.48333333333335  0.0984375000000171 7.65416666666666  0.243749999999991 7.78333333333334  C 0.534374999999983 8.04166666666667  1.01250000000002 8.04166666666667  1.30312500000001 7.78333333333334  L 4.5 4.94166666666668  L 7.69687499999999 7.78333333333334  C 7.98749999999998 8.04166666666667  8.46562500000002 8.04166666666667  8.75625000000001 7.78333333333334  C 9.046875 7.52500000000002  9.046875 7.09999999999998  8.75625000000001 6.84166666666666  Z " fill-rule="nonzero" fill="#606266" stroke="none" transform="matrix(1 0 0 1 903 1139 )" />
  </g>
</svg>