<?xml version="1.0" encoding="utf-8"?>
<svg version="1.1" xmlns:xlink="http://www.w3.org/1999/xlink" width="9px" height="9px" xmlns="http://www.w3.org/2000/svg">
  <g transform="matrix(1 0 0 1 -887 -256 )">
    <path d="M 8.75625000000001 7.69687499999999  L 5.55937500000002 4.5  L 8.75625000000001 1.30312500000001  C 9.046875 1.01250000000002  9.046875 0.534374999999983  8.75625000000001 0.243749999999991  C 8.46562500000002 -0.046875  7.98749999999998 -0.046875  7.69687499999999 0.243749999999991  L 4.5 3.44062499999998  L 1.30312500000001 0.243749999999991  C 1.01250000000002 -0.046875  0.534374999999983 -0.046875  0.243749999999991 0.243749999999991  C 0.0984375000000171 0.389062500000009  0.0234375 0.581249999999983  0.0234375 0.7734375  C 0.0234375 0.965625000000017  0.0984375000000171 1.15781249999999  0.243749999999991 1.30312500000001  L 3.44062499999998 4.5  L 0.243749999999991 7.69687499999999  C 0.0984375000000171 7.84218750000001  0.0234375 8.03437499999998  0.0234375 8.2265625  C 0.0234375 8.41875000000002  0.0984375000000171 8.61093749999999  0.243749999999991 8.75625000000001  C 0.534374999999983 9.046875  1.01250000000002 9.046875  1.30312500000001 8.75625000000001  L 4.5 5.55937500000002  L 7.69687499999999 8.75625000000001  C 7.98749999999998 9.046875  8.46562500000002 9.046875  8.75625000000001 8.75625000000001  C 9.046875 8.46562500000002  9.046875 7.98749999999998  8.75625000000001 7.69687499999999  Z " fill-rule="nonzero" fill="#606266" stroke="none" transform="matrix(1 0 0 1 887 256 )" />
  </g>
</svg>