<?xml version="1.0" encoding="utf-8"?>
<svg version="1.1" xmlns:xlink="http://www.w3.org/1999/xlink" width="20px" height="20px" preserveAspectRatio="xMinYMid meet" viewBox="314 926  20 18" xmlns="http://www.w3.org/2000/svg">
  <path d="M 1108 868  L 1108 962  A 3 3 0 0 1 1111 965 A 3 3 0 0 1 1108 968 L 1108 1080  L 324 1080  L 324 1028  A 3 3 0 0 0 327 1025 A 3 3 0 0 0 324 1022 L 324 936  " stroke-width="2" stroke="#0099cc" fill="none" />
  <path d="M 1108 866  A 3.5 3.5 0 0 0 1104.5 869.5 A 3.5 3.5 0 0 0 1108 873 A 3.5 3.5 0 0 0 1111.5 869.5 A 3.5 3.5 0 0 0 1108 866 Z M 331.6 937  L 324 930  L 316.4 937  L 331.6 937  Z " fill-rule="nonzero" fill="#0099cc" stroke="none" />
</svg>