<?xml version="1.0" encoding="utf-8"?>
<svg version="1.1" xmlns:xlink="http://www.w3.org/1999/xlink" width="74px" height="74px" xmlns="http://www.w3.org/2000/svg">
  <g transform="matrix(1 0 0 1 -177 -182 )">
    <path d="M 60.9921875 31.36328125  C 61.5703125 30.78515625  61.859375 30.0625  61.859375 29.1953125  C 61.859375 28.2960069444444  61.5703125 27.5572916666667  60.9921875 26.9791666666667  L 56.6080729166667 22.6432291666667  C 55.9978298611111 22.0329861111111  55.2751736111111 21.7278645833333  54.4401041666667 21.7278645833333  C 53.6050347222222 21.7278645833333  52.8823784722222 22.0329861111111  52.2721354166667 22.6432291666667  L 32.6158854166667 42.2513020833333  L 21.7278645833333 31.36328125  C 21.1176215277778 30.7530381944444  20.3949652777778 30.4479166666667  19.5598958333333 30.4479166666667  C 18.7248263888889 30.4479166666667  18.0021701388889 30.7530381944444  17.3919270833333 31.36328125  L 13.0078125 35.69921875  C 12.4296875 36.27734375  12.140625 37.0160590277778  12.140625 37.9153645833333  C 12.140625 38.7825520833333  12.4296875 39.5052083333333  13.0078125 40.0833333333333  L 30.4479166666667 57.5234375  C 31.0581597222222 58.1336805555556  31.7808159722222 58.4388020833333  32.6158854166667 58.4388020833333  C 33.4830729166667 58.4388020833333  34.2217881944445 58.1336805555556  34.83203125 57.5234375  L 60.9921875 31.36328125  Z M 69.0377604166667 18.427734375  C 72.3459201388889 24.0965711805556  74 30.2873263888889  74 37  C 74 43.7126736111111  72.3459201388889 49.9034288194444  69.0377604166667 55.572265625  C 65.7296006944445 61.2411024305556  61.2411024305556 65.7296006944444  55.572265625 69.0377604166667  C 49.9034288194445 72.3459201388889  43.7126736111111 74  37 74  C 30.2873263888889 74  24.0965711805556 72.3459201388889  18.427734375 69.0377604166667  C 12.7588975694444 65.7296006944444  8.27039930555556 61.2411024305556  4.96223958333333 55.572265625  C 1.65407986111111 49.9034288194444  0 43.7126736111111  0 37  C 0 30.2873263888889  1.65407986111111 24.0965711805556  4.96223958333333 18.427734375  C 8.27039930555556 12.7588975694444  12.7588975694444 8.27039930555555  18.427734375 4.96223958333333  C 24.0965711805556 1.6540798611111  30.2873263888889 0  37 0  C 43.7126736111111 0  49.9034288194445 1.6540798611111  55.572265625 4.96223958333333  C 61.2411024305556 8.27039930555555  65.7296006944445 12.7588975694444  69.0377604166667 18.427734375  Z " fill-rule="nonzero" fill="#70b603" stroke="none" transform="matrix(1 0 0 1 177 182 )" />
  </g>
</svg>