<?xml version="1.0" encoding="utf-8"?>
<svg version="1.1" xmlns:xlink="http://www.w3.org/1999/xlink" width="15px" height="21px" xmlns="http://www.w3.org/2000/svg">
  <g transform="matrix(1 0 0 1 -53 -102 )">
    <path d="M 13.9443878049801 18.175090429172  L 4.36657681940716 10.3470524978003  L 13.9519293884335 2.52517352624888  C 14.6608382330348 1.94623130315771  14.6608382330348 1.01006941049953  13.9519293884335 0.437286147228463  C 13.2430205438318 -0.141656075862706  12.0966998589444 -0.135497116042608  11.3877910143427 0.437286147228463  L 0.527910841724406 9.30002932838013  C -0.158373252517541 9.86049467201095  -0.173456419423904 10.7597028057483  0.475119757552136 11.3386450288396  L 11.3802494308898 20.2629778081924  C 11.7347038531901 20.5524489197381  12.2022820272893 20.6941049956008  12.6623186179351 20.6941049956008  C 13.1223552085809 20.6941049956008  13.5899333826796 20.5524489197381  13.9443878049801 20.2629778081924  C 14.6532966495818 19.6840355851013  14.6532966495818 18.7478736924431  13.9443878049801 18.175090429172  Z " fill-rule="nonzero" fill="#606266" stroke="none" transform="matrix(1 0 0 1 53 102 )" />
  </g>
</svg>