<?xml version="1.0" encoding="utf-8"?>
<svg version="1.1" xmlns:xlink="http://www.w3.org/1999/xlink" width="12px" height="12px" viewBox="923 442  12 12" xmlns="http://www.w3.org/2000/svg">
  <path d="M 929 442  C 932.36 442  935 444.64  935 448  C 935 451.36  932.36 454  929 454  C 925.64 454  923 451.36  923 448  C 923 444.64  925.64 442  929 442  Z " fill-rule="nonzero" fill="#ffffff" stroke="none" />
  <path d="M 929 442.5  C 932.08 442.5  934.5 444.92  934.5 448  C 934.5 451.08  932.08 453.5  929 453.5  C 925.92 453.5  923.5 451.08  923.5 448  C 923.5 444.92  925.92 442.5  929 442.5  Z " stroke-width="1" stroke="#797979" fill="none" />
  <path d="M 929 451  C 927.32 451  926 449.68  926 448  C 926 446.32  927.32 445  929 445  C 930.68 445  932 446.32  932 448  C 932 449.68  930.68 451  929 451  " fill-rule="nonzero" fill="#797979" stroke="none" />
</svg>