<?xml version="1.0" encoding="utf-8"?>
<svg version="1.1" xmlns:xlink="http://www.w3.org/1999/xlink" width="10px" height="10px" xmlns="http://www.w3.org/2000/svg">
  <g transform="matrix(1 0 0 1 -943 -405 )">
    <path d="M 9.72916666666668 8.55208333333332  L 6.17708333333335 5  L 9.72916666666668 1.44791666666668  C 10.0520833333333 1.12500000000002  10.0520833333333 0.593749999999981  9.72916666666668 0.270833333333324  C 9.40625000000002 -0.0520833333333333  8.87499999999998 -0.0520833333333333  8.55208333333332 0.270833333333324  L 5 3.82291666666665  L 1.44791666666668 0.270833333333324  C 1.12500000000002 -0.0520833333333333  0.593749999999981 -0.0520833333333333  0.270833333333324 0.270833333333324  C 0.109375000000019 0.432291666666676  0.0260416666666667 0.645833333333314  0.0260416666666667 0.859375  C 0.0260416666666667 1.07291666666669  0.109375000000019 1.28645833333332  0.270833333333324 1.44791666666668  L 3.82291666666665 5  L 0.270833333333324 8.55208333333332  C 0.109375000000019 8.71354166666668  0.0260416666666667 8.92708333333331  0.0260416666666667 9.140625  C 0.0260416666666667 9.35416666666669  0.109375000000019 9.56770833333332  0.270833333333324 9.72916666666668  C 0.593749999999981 10.0520833333333  1.12500000000002 10.0520833333333  1.44791666666668 9.72916666666668  L 5 6.17708333333335  L 8.55208333333332 9.72916666666668  C 8.87499999999998 10.0520833333333  9.40625000000002 10.0520833333333  9.72916666666668 9.72916666666668  C 10.0520833333333 9.40625000000002  10.0520833333333 8.87499999999998  9.72916666666668 8.55208333333332  Z " fill-rule="nonzero" fill="#606266" stroke="none" transform="matrix(1 0 0 1 943 405 )" />
  </g>
</svg>