<?xml version="1.0" encoding="UTF-8"?>
<svg xmlns="http://www.w3.org/2000/svg" xmlns:xlink="http://www.w3.org/1999/xlink" width="21px" height="21px" viewBox="0 0 21 21" version="1.1">
  <title>ico-dd@2x</title>
  <g id="页面-1" stroke="none" stroke-width="1" fill="none" fill-rule="evenodd">
    <g id="UI规范一" transform="translate(-145.000000, -1909.000000)" fill-rule="nonzero">
      <g id="ico-dd-2" transform="translate(145.000000, 1909.000000)">
        <g id="ico-dd" transform="translate(3.000000, 3.000000)">
          <path d="M10.0899242,0 L12.3426326,2.25302741 L11.5917298,3.00403654 L10.6209729,2.03207988 L10.6209729,4.37752284 L14.3383134,4.37752284 L14.3383134,5.43977055 L10.6209729,5.43977055 L10.6209729,9.68876142 L12.9671458,9.68876142 L11.9953268,8.71786701 L12.7462296,7.96685787 L15,10.2198853 L12.7451675,12.4729127 L11.9942647,11.7219035 L12.9650216,10.7510091 L10.6209729,10.7510091 L10.6209729,15 L9.55887559,15 L9.55887559,10.7510091 L5.31048644,10.7510091 L5.31048644,15 L4.24838915,15 L4.24838915,10.7510091 L0,10.7510091 L0,9.68876142 L4.24838915,9.68876142 L4.24838915,5.43977055 L2.65524322,5.43977055 L2.65524337,5.43977055 C1.18879237,5.43954477 0.000182701268,4.2504 0.00041503505,2.78373632 C0.000640785488,1.31707762 1.18961716,0.128299607 2.65607314,0.128531974 C4.0547474,0.12874732 5.21343745,1.21408275 5.3051927,2.60994264 L5.31050321,2.78415126 L5.31050321,4.37752284 L9.55889236,4.37752284 L9.55889236,2.03207988 L8.58813544,3.00403654 L7.83723265,2.25302741 L10.089941,0 L10.0899242,0 Z M9.55887559,5.43870831 L5.31048644,5.43870831 L5.31048644,9.68769917 L9.55887559,9.68769917 L9.55887559,5.43977055 L9.55887559,5.43870831 Z M2.65524322,1.19077969 L2.65524325,1.19077969 C1.77537364,1.19121539 1.0624508,1.90494543 1.06288539,2.78493965 C1.0632916,3.60507954 1.68610437,4.29094799 2.50230124,4.3700871 L2.65524225,4.37752274 L4.24838822,4.37752274 L4.24838822,2.78415116 L4.24838822,2.78380715 C4.24838822,2.02041121 3.70701732,1.36427905 2.95760147,1.2193951 L2.80890785,1.19815015 L2.65524146,1.19077969 L2.65524322,1.19077969 Z" id="形状" fill="#FFFFFF"></path>
          <polygon id="路径" fill="#FF643D" points="8.4967783 6.50201827 8.4967783 8.6265137 6.37258373 8.6265137 6.37258373 6.50201827"></polygon>
        </g>
      </g>
    </g>
  </g>
</svg>
