<?xml version="1.0" encoding="UTF-8"?>
<svg xmlns="http://www.w3.org/2000/svg" xmlns:xlink="http://www.w3.org/1999/xlink" width="21px" height="21px" viewBox="0 0 21 21" version="1.1">
  <title>ico-ywgl</title>
  <g id="页面-1" stroke="none" stroke-width="1" fill="none" fill-rule="evenodd">
    <g id="UI规范一" transform="translate(-145.000000, -1859.000000)">
      <g id="ico-ywgl-2" transform="translate(145.000000, 1859.000000)">
        <g id="ico-ywgl" transform="translate(3.000000, 3.000000)">
          <g id="yewu-2" fill="#FFFFFF">
            <path d="M15,10.5542481 L15,13.7893232 C15,14.457014 14.4577415,15 13.7923917,15 L1.20752769,15 C0.541493049,15 5.68434189e-14,14.4563072 5.68434189e-14,13.7893232 L5.68434189e-14,10.5542481 C5.68434189e-14,10.140632 0.208516015,9.77514089 0.524250998,9.55711447 L0.524250998,3.11178398 C0.525519981,2.08601367 1.35458868,1.25478288 2.37761031,1.25359136 L3.09464597,1.25359136 C3.35019491,0.505584622 4.05063308,0.00222146229 4.83925548,0 L12.6239004,0 C13.647063,0.00165599916 14.4759907,0.833048358 14.477159,1.85889945 L14.477159,9.55630666 C14.7922091,9.7759285 15,10.140632 15,10.5542481 Z M4.14473684,1.72134778 L4.14473684,9.24153225 L5.45561423,9.24153225 C5.74525771,9.24161344 5.98790793,9.46169521 6.01728883,9.75090263 C6.04737746,10.0479643 6.64453965,10.4605263 7.54806798,10.4605263 C8.45161652,10.4605263 9.04867761,10.0471728 9.07876624,9.75090263 C9.10814714,9.46169521 9.35079736,9.24161344 9.64046106,9.24153225 L13.4210526,9.24153225 L13.4210526,1.72134778 C13.4206482,1.31615296 13.0936366,0.98763362 12.6899273,0.986842105 L4.87584196,0.986842105 C4.47229442,0.98801923 4.14552546,1.31631532 4.14473684,1.72134778 Z M1.57894737,3.09246302 L1.57894737,9.27631579 L2.96052632,9.27631579 L2.96052632,2.36842105 L2.33186318,2.36842105 C1.91643692,2.3692028 1.57984367,2.69290795 1.57894737,3.09246302 Z M13.8157895,10.5428649 C13.8159494,10.52107 13.8073154,10.5001317 13.7917094,10.4846521 C13.7761237,10.4691526 13.7549037,10.4605263 13.732731,10.4605263 L9.90874064,10.4605263 C9.53823051,11.1682239 8.56089124,11.6570957 7.40167144,11.6570957 C6.24247191,11.6570957 5.26519344,11.1682239 4.89310245,10.4605263 L1.06982142,10.4605263 C1.04772985,10.4605263 1.02644898,10.4691526 1.01084301,10.4846521 C0.995318104,10.5001317 0.986623347,10.52107 0.986842105,10.5428649 L0.986842105,13.7342278 C0.986842105,13.7802283 1.02304404,13.8157895 1.06982142,13.8157895 L13.732731,13.8157895 C13.7547415,13.8157895 13.7758805,13.8072229 13.7914865,13.7918828 C13.8069911,13.7765626 13.8157895,13.7558634 13.8157895,13.7342278 L13.8157895,10.5428649 Z" id="yewu"></path>
          </g>
          <rect id="矩形" fill="#FF643D" x="6" y="3.5347963" width="6" height="1.4652037" rx="0.732601852"></rect>
          <rect id="矩形备份" fill="#FF643D" x="6" y="6.5347963" width="6" height="1.4652037" rx="0.732601852"></rect>
        </g>
      </g>
    </g>
  </g>
</svg>
