<?xml version="1.0" encoding="UTF-8"?>
<svg xmlns="http://www.w3.org/2000/svg" xmlns:xlink="http://www.w3.org/1999/xlink" width="20px" height="21px" viewBox="0 0 20 21" version="1.1">
  <title>ico-yyb@2x</title>
  <defs>
    <polygon id="path-1" points="0 0.16470072 15.9957095 0.16470072 15.9957095 4.74640507 0 4.74640507"></polygon>
  </defs>
  <g id="页面-1" stroke="none" stroke-width="1" fill="none" fill-rule="evenodd">
    <g id="UI规范一" transform="translate(-145.000000, -1811.000000)">
      <g id="ico-yyb-2" transform="translate(145.000000, 1811.000000)">
        <g id="ico-yyb" transform="translate(2.000000, 3.000000)">
          <g id="编组-9">
            <g id="编组" transform="translate(0.000000, 9.058824)">
              <mask id="mask-2" fill="white">
                <use xlink:href="#path-1"></use>
              </mask>
              <g id="Clip-2"></g>
              <path d="M15.235534,4.74640507 L0.694027231,4.74640507 C0.429652042,4.74640507 0.231382753,4.62489722 0.0991951589,4.44264658 C-0.0330892587,4.26039594 -0.0330892587,4.01738026 0.0991951589,3.83501837 L2.21426929,0.493430288 C2.41253858,0.189582804 2.80919818,0.128817757 3.13965507,0.250325601 C3.47011195,0.432665241 3.53621785,0.797188773 3.40403026,1.10096951 L1.8837882,3.53125988 L14.1118548,3.53125988 L12.5916127,1.10096951 C12.3933434,0.797188773 12.525531,0.432665241 12.8559879,0.250325601 C13.1865658,0.0680749601 13.5831044,0.189582804 13.7813979,0.493430288 L15.8965688,3.83501837 C16.0287564,4.01738026 16.0287564,4.26039594 15.8965688,4.44264658 C15.6982753,4.62489722 15.4999092,4.74640507 15.235534,4.74640507 Z" id="Fill-1" fill="#FFFFFF" mask="url(#mask-2)"></path>
            </g>
            <path d="M8.00004773,11.5294118 C7.86973043,11.5294118 7.73931769,11.4717576 7.6090004,11.4141246 C7.41353639,11.2988375 2.52631579,8.07058612 2.52631579,4.78470177 C2.5914625,2.13294952 5.00251138,0 8.00004773,0 C10.9974886,0 13.4736842,2.13294952 13.4736842,4.84233479 C13.4736842,8.12821914 8.65163419,11.2988375 8.3909996,11.4717576 C8.26068231,11.4717576 8.13036502,11.5294118 8.00004773,11.5294118 Z M8.00004773,1.15293484 C5.71934001,1.15293484 3.8295603,2.76701829 3.8295603,4.84233479 C3.8295603,6.85999715 6.50121989,9.22352097 7.93487715,10.2611898 C9.0425622,9.45409527 12.1052691,7.09057145 12.1052691,4.84233479 C12.1704397,2.76701829 10.28066,1.15293484 8.00004773,1.15293484 Z" id="Fill-3" fill="#FFFFFF"></path>
          </g>
          <path d="M8,3 C9.1045695,3 10,3.8954305 10,5 C10,6.1045695 9.1045695,7 8,7 C6.8954305,7 6,6.1045695 6,5 C6,3.8954305 6.8954305,3 8,3 Z M8,4 C7.44771525,4 7,4.44771525 7,5 C7,5.55228475 7.44771525,6 8,6 C8.55228475,6 9,5.55228475 9,5 C9,4.44771525 8.55228475,4 8,4 Z" id="椭圆形" fill="#FF643D" fill-rule="nonzero"></path>
        </g>
      </g>
    </g>
  </g>
</svg>
