<?xml version="1.0" encoding="UTF-8"?>
<svg xmlns="http://www.w3.org/2000/svg" xmlns:xlink="http://www.w3.org/1999/xlink" width="21px" height="21px" viewBox="0 0 21 21" version="1.1">
  <title>ico-jcsj@2x</title>
  <g id="页面-1" stroke="none" stroke-width="1" fill="none" fill-rule="evenodd">
    <g id="UI规范一" transform="translate(-145.000000, -1762.000000)" fill-rule="nonzero">
      <g id="ico-jcsj-2" transform="translate(145.000000, 1762.000000)">
        <g id="ico-jcsj" transform="translate(3.000000, 4.000000)">
          <path d="M14.4591476,11.8183833 L14.4591476,11.8183833 C14.7578519,11.8183833 15,12.066404 15,12.3723527 L15,12.4460306 L15,12.4460306 C15,12.7519792 14.7578519,13 14.4591476,13 L0.540852406,13 L0.540852383,13 C0.242148062,13 0,12.7519792 0,12.4460306 C0,12.4460306 0,12.4460306 0,12.4460306 L0,12.3723527 L0,12.3723527 C0,12.0664041 0.242148062,11.8183833 0.540852383,11.8183833 L14.4591476,11.8183833 L14.4591476,11.8183833 Z M4.0747819,3.54540418 L4.07478187,3.54540418 C4.37348619,3.54540418 4.61563426,3.79342494 4.61563426,4.09937359 L4.61563426,10.6733285 L4.61563426,10.6733285 C4.61563426,10.9792771 4.37348619,11.2272979 4.07478187,11.2272979 L1.69503139,11.2272979 L1.69503137,11.2272979 C1.39632705,11.2272979 1.15417898,10.9792771 1.15417898,10.6733285 C1.15417898,10.6733285 1.15417898,10.6733285 1.15417898,10.6733285 L1.15417898,4.09937359 L1.15417898,4.09937367 C1.15417898,3.79342503 1.39632705,3.54540418 1.69503137,3.54540418 L4.07478185,3.54540418 L4.0747819,3.54540418 Z M8.68987528,0 L8.68987525,0 C8.98857957,0 9.23072764,0.248020758 9.23072764,0.553969404 L9.23072764,10.6733285 L9.23072764,10.6733285 C9.23072764,10.9792771 8.98857957,11.2272979 8.68987525,11.2272979 L6.31012477,11.2272979 L6.31012475,11.2272979 C6.01142043,11.2272979 5.76927236,10.9792771 5.76927236,10.6733285 C5.76927236,10.6733285 5.76927236,10.6733285 5.76927236,10.6733285 L5.76927236,0.553969404 L5.76927236,0.553969487 C5.76927236,0.248020842 6.01142043,0 6.31012475,0 L8.68987523,0 L8.68987528,0 Z M3.53338866,4.65334299 L2.23534294,4.65334299 L2.23534294,10.1193591 L3.53338866,10.1193591 L3.53338866,4.65334299 Z M8.14902289,1.10793881 L6.85097718,1.10793881 L6.85097718,10.1193591 L8.14902289,10.1193591 L8.14902289,1.10793881 Z" id="形状" fill="#FFFFFF"></path>
          <path d="M13.3049686,5.31810628 C13.603673,5.31810628 13.845821,5.56612703 13.845821,5.87207568 L13.845821,10.6733285 C13.845821,10.9792771 13.603673,11.2272979 13.3049686,11.2272979 L10.9252181,11.2272979 C10.6563842,11.2272979 10.4333609,11.0264011 10.3914446,10.7631852 L10.3843657,10.6733285 L10.3843657,10.6733285 L10.3843657,5.87207576 C10.3843657,5.56612712 10.6265138,5.31810628 10.9252181,5.31810628 L13.3049686,5.31810628 Z M12.7641163,6.42604508 L11.4660706,6.42604508 L11.4660706,10.1193591 L12.7641163,10.1193591 L12.7641163,6.42604508 Z" id="形状结合" fill="#FF643D"></path>
        </g>
      </g>
    </g>
  </g>
</svg>
