<?xml version="1.0" encoding="UTF-8"?>
<svg xmlns="http://www.w3.org/2000/svg" xmlns:xlink="http://www.w3.org/1999/xlink" width="20px" height="21px" viewBox="0 0 20 21" version="1.1">
  <title>ico-sjzs@2x</title>
  <g id="页面-1" stroke="none" stroke-width="1" fill="none" fill-rule="evenodd">
    <g id="UI规范一" transform="translate(-145.000000, -1709.000000)">
      <g id="ico-sjzs-2" transform="translate(145.000000, 1709.000000)">
        <g id="ico-sjzs" transform="translate(2.000000, 3.000000)">
          <path d="M15.9859558,1.39562454 C15.9177717,1.12072134 15.6242494,0.949550677 15.3303855,1.01333541 L12.4818057,1.63073965 C12.289994,1.67222468 12.1369372,1.80698115 12.0810882,1.98362193 C12.0251324,2.16018285 12.0751554,2.35123758 12.2119504,2.48365828 L12.8336741,3.08523113 L9.5120098,5.85732148 L7.78721906,4.32922302 C7.5687312,4.1356728 7.22403341,4.14393786 7.01636537,4.3475499 L3.31607132,7.9772504 C2.86341006,7.88881023 2.40016372,8.07651102 2.15956671,8.44600328 C1.91890568,8.81541569 1.9530084,9.28660417 2.24469545,9.62239733 C2.53629715,9.95819049 3.02237822,10.0857799 3.45820154,9.94104149 C3.89402486,9.79630305 4.18519974,9.41060009 4.1852851,8.97794197 C4.1852851,8.86704239 4.1617888,8.76277083 4.12685379,8.66311093 L7.43101854,5.42186842 L9.12520646,6.92243663 C9.3313593,7.10490688 9.65256079,7.10935883 9.86436896,6.93263819 L13.593025,3.82116118 L14.301606,4.5075807 C14.438337,4.64000139 14.6406485,4.69340488 14.8311371,4.647408 C15.0217111,4.60131131 15.1710973,4.46304119 15.2221873,4.2852425 L15.9810474,1.64345667 C16.0045437,1.56250297 16.0062083,1.47735684 15.9859558,1.39562454 Z" id="Fill-1" fill="#FF643D"></path>
          <path d="M14.4642446,6.46982914 C14.1684094,6.46982914 13.9285938,6.70966558 13.9285938,7.00550083 L13.9285938,11.2500262 C13.9285938,11.5458405 13.6886737,11.7856769 13.3928385,11.7856769 L1.60716154,11.7856769 C1.31124259,11.7856769 1.07140615,11.5458405 1.07140615,11.2500262 L1.07140615,1.60716154 C1.07140615,1.31124259 1.31124259,1.07140615 1.60716154,1.07140615 L10.4908615,1.07140615 C10.7867804,1.07140615 11.0266169,0.83156971 11.0266169,0.535755391 C11.0266169,0.23983644 10.7867804,0 10.4908615,0 L1.60716154,0 C0.71950932,0 0,0.71950932 0,1.60716154 L0,11.2500262 C0,12.1375947 0.71950932,12.8570831 1.60716154,12.8570831 L13.3928385,12.8570831 C14.280407,12.8570831 15,12.1375947 15,11.2500262 L15,7.00550083 C15,6.70966558 14.7601636,6.46982914 14.4642446,6.46982914 Z M14.1963669,13.9285938 L0.803528455,13.9285938 C0.507714135,13.9285938 0.267877695,14.1684303 0.267877695,14.4642446 C0.267877695,14.7601636 0.507714135,15 0.803528455,15 L14.1963669,15 C14.4922859,15 14.7321223,14.7601636 14.7321223,14.4642446 C14.7321223,14.1684303 14.4922859,13.9285938 14.1963669,13.9285938 Z" id="Fill-3" fill="#FFFFFF"></path>
        </g>
      </g>
    </g>
  </g>
</svg>
