<?xml version="1.0" encoding="UTF-8"?>
<svg xmlns="http://www.w3.org/2000/svg" xmlns:xlink="http://www.w3.org/1999/xlink" width="20px" height="20px" viewBox="0 0 20 20" version="1.1">
  <title>ico-gongzuotai@2x</title>
  <defs>
    <polygon id="path-1" points="0 0 16 0 16 16 0 16"></polygon>
  </defs>
  <g id="页面-1" stroke="none" stroke-width="1" fill="none" fill-rule="evenodd">
    <g id="UI规范一" transform="translate(-145.000000, -1660.000000)">
      <g id="ico-gongzuotai-2" transform="translate(145.000000, 1660.000000)">
        <g id="ico-gongzuotai" transform="translate(2.000000, 2.000000)">
          <g id="changyongtubiao-xianxingdaochu-zhuanqu_huaban">
            <mask id="mask-2" fill="white">
              <use xlink:href="#path-1"></use>
            </mask>
            <g id="Clip-2"></g>
            <path d="M8.40173576,0.168850898 C8.17872744,-0.0562836326 7.81743721,-0.0562836326 7.59445213,0.168850898 L0.168070301,7.66485335 C0.00419613949,7.82988622 -0.0450358426,8.07851631 0.0434097154,8.29455806 C0.131855273,8.51059981 0.340428727,8.65140874 0.571781851,8.65122078 L1.39621997,8.65122078 L1.39621997,15.4225259 C1.39621997,15.575717 1.45642339,15.7225643 1.56358082,15.8308554 C1.670715,15.9391465 1.81599351,16 1.96754806,16 L14.0324752,16 C14.1840065,16 14.329285,15.9391465 14.4364192,15.8308554 C14.5435766,15.7225643 14.60378,15.575717 14.60378,15.4225259 L14.60378,8.65122078 L15.4282181,8.65122078 C15.6595945,8.65140874 15.8681447,8.51059981 15.9565903,8.29455806 C16.0450358,8.07851631 15.9958039,7.82988622 15.8319297,7.66485335 L8.40173576,0.168850898 Z M14.0324752,7.49643712 C13.7170232,7.49643712 13.4612401,7.75488836 13.4612401,8.0738407 L13.4612401,14.8451459 L10.5097386,14.8451459 L5.48554276,14.8451459 L2.53404128,14.8451459 L2.53404128,8.0738407 C2.53404128,7.92064959 2.47383786,7.7738023 2.36668043,7.66551122 C2.25954624,7.55719666 2.11426773,7.49643712 1.96273643,7.49643712 L1.94755773,7.49643712 L7.99332881,1.3939333 L14.0400994,7.49643712 L14.0324752,7.49643712 Z" id="Fill-1" fill="#FFFFFF" mask="url(#mask-2)"></path>
          </g>
          <path d="M8,5 C9.65685425,5 11,6.34314575 11,8 C11,9.65685425 9.65685425,11 8,11 C6.34314575,11 5,9.65685425 5,8 C5,6.34314575 6.34314575,5 8,5 Z M8,6 C6.8954305,6 6,6.8954305 6,8 C6,9.1045695 6.8954305,10 8,10 C9.1045695,10 10,9.1045695 10,8 C10,6.8954305 9.1045695,6 8,6 Z" id="椭圆形" fill="#FF643D" fill-rule="nonzero"></path>
        </g>
      </g>
    </g>
  </g>
</svg>
