<?xml version="1.0" encoding="utf-8"?>
<svg version="1.1" xmlns:xlink="http://www.w3.org/1999/xlink" width="16px" height="17px" xmlns="http://www.w3.org/2000/svg">
  <g transform="matrix(1 0 0 1 -49 -158 )">
    <path d="M 1.23076923076923 13.0535714285714  L 1.23076923076923 15.7857142857143  L 4 15.7857142857143  L 4 13.0535714285714  L 1.23076923076923 13.0535714285714  Z M 4.61538461538462 13.0535714285714  L 4.61538461538462 15.7857142857143  L 7.69230769230769 15.7857142857143  L 7.69230769230769 13.0535714285714  L 4.61538461538462 13.0535714285714  Z M 1.23076923076923 9.41071428571429  L 1.23076923076923 12.4464285714286  L 4 12.4464285714286  L 4 9.41071428571429  L 1.23076923076923 9.41071428571429  Z M 4.61538461538462 9.41071428571429  L 4.61538461538462 12.4464285714286  L 7.69230769230769 12.4464285714286  L 7.69230769230769 9.41071428571429  L 4.61538461538462 9.41071428571429  Z M 1.23076923076923 6.07142857142857  L 1.23076923076923 8.80357142857143  L 4 8.80357142857143  L 4 6.07142857142857  L 1.23076923076923 6.07142857142857  Z M 8.30769230769231 13.0535714285714  L 8.30769230769231 15.7857142857143  L 11.3846153846154 15.7857142857143  L 11.3846153846154 13.0535714285714  L 8.30769230769231 13.0535714285714  Z M 4.61538461538462 6.07142857142857  L 4.61538461538462 8.80357142857143  L 7.69230769230769 8.80357142857143  L 7.69230769230769 6.07142857142857  L 4.61538461538462 6.07142857142857  Z M 12 13.0535714285714  L 12 15.7857142857143  L 14.7692307692308 15.7857142857143  L 14.7692307692308 13.0535714285714  L 12 13.0535714285714  Z M 8.30769230769231 9.41071428571429  L 8.30769230769231 12.4464285714286  L 11.3846153846154 12.4464285714286  L 11.3846153846154 9.41071428571429  L 8.30769230769231 9.41071428571429  Z M 4.83173076923077 4.46344866071429  C 4.89262820512821 4.40336681547619  4.92307692307692 4.33221726190476  4.92307692307692 4.25  L 4.92307692307692 1.51785714285714  C 4.92307692307692 1.43563988095238  4.89262820512821 1.36449032738095  4.83173076923077 1.30440848214286  C 4.77083333333333 1.24432663690476  4.69871794871795 1.21428571428571  4.61538461538462 1.21428571428571  L 4 1.21428571428571  C 3.91666666666667 1.21428571428571  3.84455128205128 1.24432663690476  3.78365384615385 1.30440848214286  C 3.72275641025641 1.36449032738095  3.69230769230769 1.43563988095238  3.69230769230769 1.51785714285714  L 3.69230769230769 4.25  C 3.69230769230769 4.33221726190476  3.72275641025641 4.40336681547619  3.78365384615385 4.46344866071429  C 3.84455128205128 4.52353050595238  3.91666666666667 4.55357142857143  4 4.55357142857143  L 4.61538461538462 4.55357142857143  C 4.69871794871795 4.55357142857143  4.77083333333333 4.52353050595238  4.83173076923077 4.46344866071429  Z M 12 9.41071428571429  L 12 12.4464285714286  L 14.7692307692308 12.4464285714286  L 14.7692307692308 9.41071428571429  L 12 9.41071428571429  Z M 8.30769230769231 6.07142857142857  L 8.30769230769231 8.80357142857143  L 11.3846153846154 8.80357142857143  L 11.3846153846154 6.07142857142857  L 8.30769230769231 6.07142857142857  Z M 12 6.07142857142857  L 12 8.80357142857143  L 14.7692307692308 8.80357142857143  L 14.7692307692308 6.07142857142857  L 12 6.07142857142857  Z M 12.2163461538462 4.46344866071429  C 12.2772435897436 4.40336681547619  12.3076923076923 4.33221726190476  12.3076923076923 4.25  L 12.3076923076923 1.51785714285714  C 12.3076923076923 1.43563988095238  12.2772435897436 1.36449032738095  12.2163461538462 1.30440848214286  C 12.1554487179487 1.24432663690476  12.0833333333333 1.21428571428571  12 1.21428571428571  L 11.3846153846154 1.21428571428571  C 11.3012820512821 1.21428571428571  11.2291666666667 1.24432663690476  11.1682692307692 1.30440848214286  C 11.1073717948718 1.36449032738095  11.0769230769231 1.43563988095238  11.0769230769231 1.51785714285714  L 11.0769230769231 4.25  C 11.0769230769231 4.33221726190476  11.1073717948718 4.40336681547619  11.1682692307692 4.46344866071429  C 11.2291666666667 4.52353050595238  11.3012820512821 4.55357142857143  11.3846153846154 4.55357142857143  L 12 4.55357142857143  C 12.0833333333333 4.55357142857143  12.1554487179487 4.52353050595238  12.2163461538462 4.46344866071429  Z M 15.6346153846154 2.7890625  C 15.8782051282051 3.02938988095238  16 3.31398809523809  16 3.64285714285714  L 16 15.7857142857143  C 16 16.1145833333333  15.8782051282051 16.399181547619  15.6346153846154 16.6395089285714  C 15.3910256410256 16.8798363095238  15.1025641025641 17  14.7692307692308 17  L 1.23076923076923 17  C 0.897435897435898 17  0.608974358974359 16.8798363095238  0.365384615384615 16.6395089285714  C 0.121794871794872 16.399181547619  0 16.1145833333333  0 15.7857142857143  L 0 3.64285714285714  C 0 3.31398809523809  0.121794871794872 3.02938988095238  0.365384615384615 2.7890625  C 0.608974358974359 2.54873511904762  0.897435897435898 2.42857142857143  1.23076923076923 2.42857142857143  L 2.46153846153846 2.42857142857143  L 2.46153846153846 1.51785714285714  C 2.46153846153846 1.10044642857143  2.61217948717949 0.743117559523809  2.91346153846154 0.445870535714286  C 3.21474358974359 0.148623511904762  3.57692307692308 0  4 0  L 4.61538461538462 0  C 5.03846153846154 0  5.40064102564103 0.148623511904762  5.70192307692308 0.445870535714286  C 6.00320512820513 0.743117559523809  6.15384615384615 1.10044642857143  6.15384615384615 1.51785714285714  L 6.15384615384615 2.42857142857143  L 9.84615384615385 2.42857142857143  L 9.84615384615385 1.51785714285714  C 9.84615384615385 1.10044642857143  9.99679487179487 0.743117559523809  10.2980769230769 0.445870535714286  C 10.599358974359 0.148623511904762  10.9615384615385 0  11.3846153846154 0  L 12 0  C 12.4230769230769 0  12.7852564102564 0.148623511904762  13.0865384615385 0.445870535714286  C 13.3878205128205 0.743117559523809  13.5384615384615 1.10044642857143  13.5384615384615 1.51785714285714  L 13.5384615384615 2.42857142857143  L 14.7692307692308 2.42857142857143  C 15.1025641025641 2.42857142857143  15.3910256410256 2.54873511904762  15.6346153846154 2.7890625  Z " fill-rule="nonzero" fill="#7f7f7f" stroke="none" transform="matrix(1 0 0 1 49 158 )" />
  </g>
</svg>