<?xml version="1.0" encoding="utf-8"?>
<svg version="1.1" xmlns:xlink="http://www.w3.org/1999/xlink" width="15px" height="14px" xmlns="http://www.w3.org/2000/svg">
  <g transform="matrix(1 0 0 1 -359 -109 )">
    <path d="M 5.04807692307691 0.504807692307622  C 5.04807692307691 0.227163461538566  4.82091346153845 0  4.54326923076923 0  L 2.42307692307691 0  C 1.08533653846155 0  0 1.08533653846143  0 2.42307692307691  L 0 4.54326923076928  C 0 4.82091346153834  0.227163461538453 5.04807692307691  0.504807692307679 5.04807692307691  C 0.782451923076906 5.04807692307691  1.00961538461536 4.82091346153834  1.00961538461536 4.54326923076928  L 1.00961538461536 2.38701923076928  C 1.00961538461536 2.05889423076928  1.16466346153845 1.71274038461547  1.43149038461536 1.44230769230762  C 1.70192307692309 1.16826923076928  2.05168269230768 1.00961538461547  2.38701923076923 1.00961538461547  L 4.54326923076923 1.00961538461547  C 4.82091346153845 1.00961538461547  5.04807692307691 0.782451923076906  5.04807692307691 0.504807692307622  Z M 15 2.38701923076928  C 15 1.07091346153857  13.9290865384615 0  12.6129807692308 0  L 10.4567307692308 0  C 10.1790865384615 0  9.95192307692309 0.227163461538566  9.95192307692309 0.504807692307622  C 9.95192307692309 0.782451923076906  10.1790865384615 1.00961538461547  10.4567307692308 1.00961538461547  L 12.6129807692308 1.00961538461547  C 12.9483173076923 1.00961538461547  13.2980769230769 1.16826923076928  13.5685096153846 1.44230769230762  C 13.8353365384615 1.71274038461547  13.9903846153846 2.05889423076928  13.9903846153846 2.38701923076928  L 13.9903846153846 4.54326923076928  C 13.9903846153846 4.82091346153834  14.2175480769231 5.04807692307691  14.4951923076923 5.04807692307691  C 14.7728365384615 5.04807692307691  15 4.82091346153834  15 4.54326923076928  L 15 2.38701923076928  Z M 5.04807692307691 13.3413461538462  C 5.04807692307691 13.0637019230769  4.82091346153845 12.8365384615383  4.54326923076923 12.8365384615383  L 2.38701923076923 12.8365384615383  C 2.05168269230768 12.8365384615383  1.70192307692309 12.6778846153845  1.43149038461536 12.4038461538462  C 1.16466346153845 12.1334134615383  1.00961538461536 11.7872596153845  1.00961538461536 11.4591346153845  L 1.00961538461536 9.30288461538453  C 1.00961538461536 9.02524038461547  0.782451923076906 8.79807692307691  0.504807692307679 8.79807692307691  C 0.227163461538453 8.79807692307691  0 9.02524038461547  0 9.30288461538453  L 0 11.4591346153845  C 0 12.7752403846152  1.07091346153845 13.8461538461538  2.38701923076923 13.8461538461538  L 4.54326923076923 13.8461538461538  C 4.82091346153845 13.8461538461538  5.04807692307691 13.6189903846152  5.04807692307691 13.3413461538462  Z M 15 9.30288461538453  C 15 9.02524038461547  14.7728365384615 8.79807692307691  14.4951923076923 8.79807692307691  C 14.2175480769231 8.79807692307691  13.9903846153846 9.02524038461547  13.9903846153846 9.30288461538453  L 13.9903846153846 11.4591346153845  C 13.9903846153846 11.7872596153845  13.8353365384615 12.1334134615383  13.5685096153846 12.4038461538462  C 13.2980769230769 12.6778846153845  12.9483173076923 12.8365384615383  12.6129807692308 12.8365384615383  L 10.4567307692308 12.8365384615383  C 10.1790865384615 12.8365384615383  9.95192307692309 13.0637019230769  9.95192307692309 13.3413461538462  C 9.95192307692309 13.6189903846152  10.1790865384615 13.8461538461538  10.4567307692308 13.8461538461538  L 12.5769230769231 13.8461538461538  C 13.9110576923077 13.8461538461538  15 12.7608173076924  15 11.4230769230769  L 15 9.30288461538453  Z " fill-rule="nonzero" fill="#333333" stroke="none" transform="matrix(1 0 0 1 359 109 )" />
  </g>
</svg>