<?xml version="1.0" encoding="utf-8"?>
<svg version="1.1" xmlns:xlink="http://www.w3.org/1999/xlink" width="10px" height="5px" xmlns="http://www.w3.org/2000/svg">
  <g transform="matrix(1 0 0 1 -2595 -403 )">
    <path d="M 9.81445312500004 0.164930555555548  C 9.93815104166664 0.274884259259262  10 0.405092592592595  10 0.555555555555548  C 10 0.706018518518524  9.93815104166664 0.836226851851857  9.81445312500004 0.946180555555548  L 5.439453125 4.83506944444445  C 5.31575520833329 4.94502314814814  5.16927083333329 5  5 5  C 4.83072916666671 5  4.68424479166671 4.94502314814814  4.560546875 4.83506944444445  L 0.185546874999959 0.946180555555548  C 0.0618489583333547 0.836226851851857  0 0.706018518518524  0 0.555555555555548  C 0 0.405092592592595  0.0618489583333547 0.274884259259262  0.185546874999959 0.164930555555548  C 0.309244791666668 0.0549768518518571  0.455729166666669 0  0.62499999999996 0  L 9.37500000000004 0  C 9.54427083333333 0  9.69075520833333 0.0549768518518571  9.81445312500004 0.164930555555548  Z " fill-rule="nonzero" fill="#cccccc" stroke="none" transform="matrix(1 0 0 1 2595 403 )" />
  </g>
</svg>