<?xml version="1.0" encoding="utf-8"?>
<svg version="1.1" xmlns:xlink="http://www.w3.org/1999/xlink" width="20px" height="20px" xmlns="http://www.w3.org/2000/svg">
  <g transform="matrix(1 0 0 1 -227 -162 )">
    <path d="M 19.9573863636364 15.4971590909091  C 19.9857954545455 15.563446969697  20 15.6628787878788  20 15.7954545454545  C 20 16.0511363636364  19.9526515151515 16.3849431818182  19.8579545454545 16.796875  C 19.7632575757576 17.2088068181818  19.6638257575758 17.5331439393939  19.5596590909091 17.7698863636364  C 19.3607954545455 18.2433712121212  18.7831439393939 18.7452651515152  17.8267045454545 19.2755681818182  C 16.936553030303 19.7585227272727  16.0558712121212 20  15.1846590909091 20  C 14.9289772727273 20  14.6780303030303 19.983428030303  14.4318181818182 19.9502840909091  C 14.1856060606061 19.9171401515152  13.9133522727273 19.8579545454545  13.6150568181818 19.7727272727273  C 13.3167613636364 19.6875  13.0942234848485 19.6188446969697  12.9474431818182 19.5667613636364  C 12.8006628787879 19.514678030303  12.5378787878788 19.4176136363636  12.1590909090909 19.2755681818182  C 11.780303030303 19.1335227272727  11.5482954545455 19.0482954545455  11.4630681818182 19.0198863636364  C 10.5350378787879 18.688446969697  9.70643939393939 18.2954545454545  8.97727272727273 17.8409090909091  C 7.77462121212121 17.092803030303  6.52462121212121 16.0700757575758  5.22727272727273 14.7727272727273  C 3.92992424242424 13.4753787878788  2.90719696969697 12.2253787878788  2.15909090909091 11.0227272727273  C 1.70454545454545 10.2935606060606  1.31155303030303 9.46496212121212  0.980113636363636 8.53693181818182  C 0.951704545454545 8.45170454545454  0.866477272727273 8.21969696969697  0.724431818181818 7.84090909090909  C 0.582386363636364 7.46212121212121  0.48532196969697 7.19933712121212  0.433238636363636 7.05255681818182  C 0.381155303030303 6.90577651515151  0.3125 6.68323863636363  0.227272727272727 6.38494318181818  C 0.142045454545455 6.08664772727272  0.0828598484848485 5.81439393939394  0.0497159090909091 5.56818181818182  C 0.0165719696969697 5.3219696969697  0 5.07102272727273  0 4.81534090909091  C 0 3.94412878787879  0.241477272727273 3.06344696969697  0.724431818181818 2.17329545454545  C 1.25473484848485 1.21685606060606  1.75662878787879 0.639204545454546  2.23011363636364 0.440340909090908  C 2.46685606060606 0.336174242424241  2.79119318181818 0.236742424242422  3.203125 0.142045454545454  C 3.61505681818182 0.047348484848484  3.94886363636364 0  4.20454545454546 0  C 4.33712121212121 0  4.43655303030303 0.0142045454545459  4.50284090909091 0.0426136363636354  C 4.67329545454546 0.0994318181818188  4.92424242424242 0.459280303030303  5.25568181818182 1.12215909090909  C 5.35984848484849 1.30208333333333  5.50189393939394 1.55776515151515  5.68181818181818 1.88920454545455  C 5.86174242424242 2.22064393939394  6.02746212121212 2.52130681818182  6.17897727272727 2.79119318181818  C 6.33049242424242 3.06107954545455  6.47727272727273 3.31439393939394  6.61931818181818 3.55113636363636  C 6.64772727272727 3.58901515151515  6.73058712121212 3.70738636363636  6.86789772727273 3.90625  C 7.00520833333333 4.10511363636363  7.10700757575758 4.27320075757576  7.17329545454545 4.41051136363637  C 7.23958333333333 4.54782196969697  7.27272727272727 4.68276515151515  7.27272727272727 4.81534090909091  C 7.27272727272727 5.00473484848485  7.13778409090909 5.24147727272727  6.86789772727273 5.52556818181818  C 6.59801136363636 5.80965909090909  6.30445075757576 6.07007575757576  5.98721590909091 6.30681818181818  C 5.66998106060606 6.5435606060606  5.37642045454545 6.79450757575758  5.10653409090909 7.05965909090909  C 4.83664772727273 7.32481060606061  4.70170454545455 7.54261363636363  4.70170454545455 7.71306818181818  C 4.70170454545455 7.79829545454545  4.72537878787879 7.90482954545455  4.77272727272727 8.03267045454545  C 4.82007575757576 8.16051136363637  4.86032196969697 8.25757575757576  4.89346590909091 8.32386363636363  C 4.92660984848485 8.39015151515151  4.99289772727273 8.50378787878788  5.09232954545455 8.66477272727273  C 5.19176136363636 8.82575757575758  5.24621212121212 8.9157196969697  5.25568181818182 8.93465909090909  C 5.97537878787879 10.2320075757576  6.79924242424242 11.344696969697  7.72727272727273 12.2727272727273  C 8.65530303030303 13.2007575757576  9.76799242424243 14.0246212121212  11.0653409090909 14.7443181818182  C 11.0842803030303 14.7537878787879  11.1742424242424 14.8082386363636  11.3352272727273 14.9076704545455  C 11.4962121212121 15.0071022727273  11.6098484848485 15.0733901515151  11.6761363636364 15.1065340909091  C 11.7424242424242 15.139678030303  11.8394886363636 15.1799242424242  11.9673295454545 15.2272727272727  C 12.0951704545455 15.2746212121212  12.2017045454545 15.2982954545455  12.2869318181818 15.2982954545455  C 12.4573863636364 15.2982954545455  12.6751893939394 15.1633522727273  12.9403409090909 14.8934659090909  C 13.2054924242424 14.6235795454545  13.4564393939394 14.3300189393939  13.6931818181818 14.0127840909091  C 13.9299242424242 13.6955492424242  14.1903409090909 13.4019886363636  14.4744318181818 13.1321022727273  C 14.7585227272727 12.8622159090909  14.9952651515152 12.7272727272727  15.1846590909091 12.7272727272727  C 15.3172348484849 12.7272727272727  15.452178030303 12.7604166666667  15.5894886363636 12.8267045454545  C 15.7267992424242 12.8929924242424  15.8948863636364 12.9947916666667  16.09375 13.1321022727273  C 16.2926136363636 13.2694128787879  16.4109848484849 13.3522727272727  16.4488636363636 13.3806818181818  C 16.6856060606061 13.5227272727273  16.9389204545455 13.6695075757576  17.2088068181818 13.8210227272727  C 17.4786931818182 13.9725378787879  17.7793560606061 14.1382575757576  18.1107954545455 14.3181818181818  C 18.4422348484849 14.4981060606061  18.6979166666667 14.6401515151515  18.8778409090909 14.7443181818182  C 19.5407196969697 15.0757575757576  19.9005681818182 15.3267045454545  19.9573863636364 15.4971590909091  Z " fill-rule="nonzero" fill="#000000" stroke="none" transform="matrix(1 0 0 1 227 162 )" />
  </g>
</svg>