<?xml version="1.0" encoding="utf-8"?>
<svg version="1.1" xmlns:xlink="http://www.w3.org/1999/xlink" width="27px" height="17px" xmlns="http://www.w3.org/2000/svg">
  <g transform="matrix(1 0 0 1 -319 -1067 )">
    <path d="M 20.0465959821429 13.3181423611111  C 22.060546875 12.1228298611111  23.7354910714286 10.5167824074074  25.0714285714286 8.5  C 23.5446428571429 6.17824074074074  21.6311383928571 4.44184027777778  19.3309151785714 3.29079861111111  C 19.9436383928571 4.31394675925926  20.25 5.42071759259259  20.25 6.61111111111111  C 20.25 8.43113425925926  19.5895647321429 9.98799189814815  18.2686941964286 11.2816840277778  C 16.9478236607143 12.5753761574074  15.3582589285714 13.2222222222222  13.5 13.2222222222222  C 11.6417410714286 13.2222222222222  10.0521763392857 12.5753761574074  8.73130580357143 11.2816840277778  C 7.41043526785714 9.98799189814815  6.75 8.43113425925926  6.75 6.61111111111111  C 6.75 5.42071759259259  7.05636160714286 4.31394675925926  7.66908482142857 3.29079861111111  C 5.36886160714286 4.44184027777778  3.45535714285714 6.17824074074074  1.92857142857143 8.5  C 3.26450892857143 10.5167824074074  4.939453125 12.1228298611111  6.95340401785714 13.3181423611111  C 8.96735491071429 14.5134548611111  11.1495535714286 15.1111111111111  13.5 15.1111111111111  C 15.8504464285714 15.1111111111111  18.0326450892857 14.5134548611111  20.0465959821429 13.3181423611111  Z M 14.0122767857143 3.33506944444444  C 14.1529017857143 3.19733796296296  14.2232142857143 3.03009259259259  14.2232142857143 2.83333333333333  C 14.2232142857143 2.63657407407407  14.1529017857143 2.4693287037037  14.0122767857143 2.33159722222222  C 13.8716517857143 2.19386574074074  13.7008928571429 2.125  13.5 2.125  C 12.2444196428571 2.125  11.1671316964286 2.56524884259259  10.2681361607143 3.44574652777778  C 9.369140625 4.32624421296296  8.91964285714286 5.38136574074074  8.91964285714286 6.61111111111111  C 8.91964285714286 6.80787037037037  8.98995535714286 6.97511574074074  9.13058035714286 7.11284722222222  C 9.27120535714286 7.2505787037037  9.44196428571429 7.31944444444444  9.64285714285714 7.31944444444444  C 9.84375 7.31944444444444  10.0145089285714 7.2505787037037  10.1551339285714 7.11284722222222  C 10.2957589285714 6.97511574074074  10.3660714285714 6.80787037037037  10.3660714285714 6.61111111111111  C 10.3660714285714 5.7650462962963  10.6724330357143 5.04195601851852  11.28515625 4.44184027777778  C 11.8978794642857 3.84172453703704  12.6361607142857 3.54166666666667  13.5 3.54166666666667  C 13.7008928571429 3.54166666666667  13.8716517857143 3.47280092592592  14.0122767857143 3.33506944444444  Z M 26.6986607142857 7.48177083333333  C 26.8995535714286 7.82609953703704  27 8.16550925925926  27 8.5  C 27 8.83449074074074  26.8995535714286 9.17390046296296  26.6986607142857 9.51822916666667  C 25.2924107142857 11.7809606481481  23.4015066964286 13.5936053240741  21.0259486607143 14.9561631944444  C 18.650390625 16.3187210648148  16.1417410714286 17  13.5 17  C 10.8582589285714 17  8.349609375 16.3162615740741  5.97405133928571 14.9487847222222  C 3.59849330357143 13.5813078703704  1.70758928571429 11.7711226851852  0.301339285714286 9.51822916666667  C 0.100446428571429 9.17390046296296  0 8.83449074074074  0 8.5  C 0 8.16550925925926  0.100446428571429 7.82609953703704  0.301339285714286 7.48177083333333  C 1.70758928571429 5.22887731481481  3.59849330357143 3.41869212962963  5.97405133928571 2.05121527777778  C 8.349609375 0.683738425925925  10.8582589285714 0  13.5 0  C 16.1417410714286 0  18.650390625 0.683738425925925  21.0259486607143 2.05121527777778  C 23.4015066964286 3.41869212962963  25.2924107142857 5.22887731481481  26.6986607142857 7.48177083333333  Z " fill-rule="nonzero" fill="#000000" stroke="none" transform="matrix(1 0 0 1 319 1067 )" />
  </g>
</svg>