<svg t="1660290565466" class="icon" viewBox="0 0 1024 1024" version="1.1" xmlns="http://www.w3.org/2000/svg" p-id="9049" width="200" height="200"><path d="M475.3 295.6 332.7 360.6 546.4 411.3 690.9 345.3Z" p-id="9050" fill="#82D3DE"></path><path d="M568.4 712.6 732.5 605.9 732.5 370 568.4 445Z" p-id="9051" fill="#82D3DE"></path><path d="M512 64.1c-247 0-447.9 200.9-447.9 447.9 0 247 200.9 447.9 447.9 447.9 247 0 447.9-200.9 447.9-447.9C959.9 265 759 64.1 512 64.1zM763.2 633.4l-204 132.6-0.2 0.1c-0.1 0.1-0.3 0.2-0.4 0.3l-0.1 0.1c-0.3 0.2-0.5 0.3-0.8 0.4-0.2 0.1-0.4 0.2-0.5 0.3-0.3 0.1-0.6 0.3-0.9 0.4-0.2 0.1-0.3 0.1-0.4 0.2-0.3 0.1-0.7 0.3-1 0.4l-0.4 0.1c-0.4 0.1-0.7 0.2-1.1 0.3l-0.3 0.1c-0.4 0.1-0.8 0.2-1.2 0.3l-0.3 0c-0.4 0.1-0.9 0.1-1.3 0.2l-0.2 0c-0.5 0-1 0.1-1.5 0.1l0 0c-0.5 0-0.9 0-1.4-0.1l-0.3 0c-0.4 0-0.7-0.1-1.1-0.1-0.1 0-0.3 0-0.5-0.1-0.3-0.1-0.6-0.1-0.9-0.2-0.2 0-0.3-0.1-0.4-0.1-0.4-0.1-0.7-0.2-1.1-0.3-0.1 0-0.3-0.1-0.3-0.1l-276.7-85.4c-8.4-2.6-14-10.2-14-19l0-63.4 39.8 0L291.7 649.1l237.1 73.2L528.8 448l-237.1-56.3 0 122.1-39.8 0L251.9 366.5c0-1.5 0.2-3 0.5-4.4l0-0.2c0.1-0.3 0.1-0.6 0.2-0.8l0.1-0.3c0.1-0.2 0.1-0.5 0.2-0.7l0.1-0.3c0.1-0.3 0.2-0.5 0.3-0.7l0.1-0.2c0.4-1 0.9-2 1.5-2.9l0.1-0.1c0.2-0.3 0.4-0.5 0.5-0.8l0.1-0.1c0.2-0.3 0.4-0.6 0.6-0.8l0.1-0.1c1.1-1.4 2.5-2.7 4-3.8l0.1-0.1c0.3-0.2 0.5-0.3 0.8-0.5l0.3-0.2c0.2-0.1 0.4-0.2 0.6-0.4l0.4-0.2c0.2-0.1 0.4-0.2 0.5-0.3 0.2-0.1 0.6-0.3 0.6-0.3l201.5-91.8c2.6-1.2 5.4-1.8 8.2-1.8 1.5 0 3 0.2 4.5 0.5l279.2 64.3c0.1 0 0.7 0.2 0.7 0.2 0.3 0.1 0.6 0.2 0.9 0.3l0.2 0.1c0.7 0.2 1.5 0.5 2.2 0.9l0.1 0c0.3 0.2 0.7 0.3 1 0.5l0.1 0.1c1 0.6 2.1 1.3 3 2.1l0.1 0.1c0.3 0.2 0.5 0.5 0.8 0.7 0.6 0.6 1.2 1.2 1.7 1.8l0.1 0.2c0.2 0.3 0.4 0.5 0.6 0.7l0.2 0.2c0.2 0.3 0.4 0.6 0.6 0.8l0.1 0.2c0.2 0.3 0.4 0.6 0.6 1l0.1 0.2c0.1 0.3 0.3 0.5 0.4 0.8l0.1 0.3c0.1 0.3 0.3 0.6 0.4 0.9l0.1 0.1c0.3 0.7 0.5 1.5 0.7 2.3l0 0.1c0.1 0.4 0.2 0.8 0.3 1.1 0.2 0.8 0.3 1.6 0.3 2.3l0 0.3c0 0.3 0 0.7 0 1l0 277.7C772.3 623.4 768.9 629.7 763.2 633.4z" p-id="9052" fill="#82D3DE"></path></svg>