<svg t="1660291364661" class="icon" viewBox="0 0 1024 1024" version="1.1" xmlns="http://www.w3.org/2000/svg" p-id="13897" width="200" height="200"><path d="M639.318734 362.471428c0-70.606081-57.443293-128.049375-128.049375-128.049375-70.606081 0-128.049375 57.44227-128.049375 128.049375s57.44227 128.049375 128.049375 128.049375C581.874417 490.51978 639.318734 433.077509 639.318734 362.471428z" p-id="13898" fill="#9C96E5"></path><path d="M829.599452 195.664332c-84.647889-84.647889-197.194174-131.265626-316.904627-131.265626-119.710452 0-232.256738 46.61876-316.90565 131.265626C111.14231 280.313244 64.523549 392.858506 64.523549 512.568958c0 119.709429 46.61876 232.256738 131.265626 316.904627 84.648912 84.649935 197.194174 131.266649 316.90565 131.266649 119.709429 0 232.256738-46.617737 316.904627-131.266649 84.649935-84.647889 131.266649-197.194174 131.266649-316.904627C960.866101 392.858506 914.248364 280.313244 829.599452 195.664332zM732.928738 763.954359c-11.048637 0-20.007683-8.958022-20.007683-20.007683 0-111.192452-90.460268-201.652719-201.652719-201.652719s-201.651696 90.460268-201.651696 201.652719c0 11.048637-8.958022 20.007683-20.007683 20.007683-11.04966 0-20.007683-8.958022-20.007683-20.007683 0-107.004059 69.912279-197.973934 166.45201-229.668797-55.802934-27.762297-94.256734-85.364203-94.256734-151.806451 0-93.447299 76.025511-169.471786 169.471786-169.471786s169.471786 76.025511 169.471786 169.471786c0 66.442248-38.452777 124.045177-94.256734 151.806451 96.53973 31.695886 166.45201 122.664737 166.45201 229.668797C752.936421 754.996336 743.978399 763.954359 732.928738 763.954359z" p-id="13899" fill="#9C96E5"></path></svg>