<svg t="1660046529372" class="icon" viewBox="0 0 1024 1024" version="1.1" xmlns="http://www.w3.org/2000/svg" p-id="30741" width="200" height="200"><path d="M347.136 433.152m-30.72 0a30.72 30.72 0 1 0 61.44 0 30.72 30.72 0 1 0-61.44 0Z" p-id="30742" fill="#efb336"></path><path d="M645.12 624.64H378.88c-5.12 0-9.216 4.096-9.216 9.216s4.096 9.216 9.216 9.216h266.24c5.12 0 9.216-4.096 9.216-9.216s-4.096-9.216-9.216-9.216z" p-id="30743" fill="#efb336"></path><path d="M512 433.152m-30.72 0a30.72 30.72 0 1 0 61.44 0 30.72 30.72 0 1 0-61.44 0Z" p-id="30744" fill="#efb336"></path><path d="M676.864 433.152m-30.72 0a30.72 30.72 0 1 0 61.44 0 30.72 30.72 0 1 0-61.44 0Z" p-id="30745" fill="#efb336"></path><path d="M512 0C229.376 0 0 229.376 0 512s229.376 512 512 512 512-229.376 512-512S794.624 0 512 0z m281.6 558.08C793.6 656.384 712.704 737.28 614.4 737.28H248.832c-10.24 0-18.432-8.192-18.432-18.432V465.92C230.4 367.616 311.296 286.72 409.6 286.72h364.544c10.24 0 18.432 8.192 18.432 18.432v252.928z" p-id="30746" fill="#efb336"></path><path d="M701.44 542.72h-378.88c-5.12 0-9.216 4.096-9.216 9.216s4.096 9.216 9.216 9.216h377.856c5.12 0 9.216-4.096 9.216-9.216 1.024-5.12-3.072-9.216-8.192-9.216z" p-id="30747" fill="#efb336"></path></svg>