<svg t="1660052159602" class="icon" viewBox="0 0 1024 1024" version="1.1" xmlns="http://www.w3.org/2000/svg" p-id="32820" data-spm-anchor-id="a313x.7781069.0.i49" width="200" height="200"><path d="M698.349 350.796c-5.392-26.617-29.05-45.569-56.2-45.027-70.081-3.048-140.498-5.417-210.581-6.096a299.68 299.68 0 0 0-67.708 10.496 38.595 38.595 0 0 0-24.716 16.929c-18.958 40.964-33.178 83.284-49.767 128.649a1069.52 1069.52 0 0 0 442.828 0c-12.527-37.581-25.055-71.095-33.856-104.951zM756.917 542.075a734.032 734.032 0 0 0-101.566 38.598c-14.896 7.108-9.479 26.745 7.449 30.467a380.674 380.674 0 0 0 45.706 4.065v0.335a482.943 482.943 0 0 0 53.15-6.769c25.393-5.755 19.977-26.408 19.297-44.35-0.675-17.944-10.157-26.408-24.036-22.346zM363.521 576.27a791.755 791.755 0 0 0-84.64-33.854c-14.22-4.741-30.469-3.724-33.852 16.249-6.774 29.455 0 45.706 22.003 50.445 17.267 3.387 33.856 4.061 52.815 5.757l-1.692 0.673a165.09 165.09 0 0 0 36.226-2.031 33.842 33.842 0 0 0 22.004-16.587c1.694-5.08-6.093-17.604-12.864-20.652z" p-id="32821" data-spm-anchor-id="a313x.7781069.0.i51" class="selected" fill="#ffffff"></path><path d="M512 0C229.23 0 0 229.23 0 512s229.23 512 512 512 512-229.23 512-512S794.77 0 512 0z m338.358 506.189l-38.596 10.498a340.983 340.983 0 0 1 4.739 40.624v187.558a53.488 53.488 0 0 1-11.512 31.148 316.864 316.864 0 0 1-108.334 2.03c-25.055-15.91-9.479-42.657-17.607-64.324H349.979c-6.436 23.02-10.157 61.614-17.605 64.324a321.638 321.638 0 0 1-111.045 0 60.573 60.573 0 0 1-12.188-35.887c-2.031-27.082-2.031-52.814-2.031-79.22 0-49.091 0-98.181 2.031-147.608l-35.887-9.478a38.957 38.957 0 0 1 0-16.589c10.158-27.085 23.699-48.075 58.568-45.028 4.061 0 11.849-8.126 14.22-14.222a910.559 910.559 0 0 0 33.855-92.424c13.021-46.38 53.549-79.746 101.565-83.62 18.62-3.388 37.918-5.757 56.539-8.805l1.016 1.356a491.198 491.198 0 0 1 145.239 0c33.855 6.771 67.708 12.188 99.534 20.99a71.09 71.09 0 0 1 50.105 47.058 3361.6 3361.6 0 0 0 43.336 115.445c2.708 6.435 10.831 15.914 15.572 15.236 26.853-4.536 52.413 13.205 57.555 39.948a43.657 43.657 0 0 1 0 20.99z" p-id="32822" data-spm-anchor-id="a313x.7781069.0.i50" class="selected" fill="#ffffff"></path></svg>