<svg t="1660053419377" class="icon" viewBox="0 0 1024 1024" version="1.1" xmlns="http://www.w3.org/2000/svg" p-id="36199" data-spm-anchor-id="a313x.7781069.0.i65" width="200" height="200"><path d="M965.40416 342.76608c-19.50976-52.24704-47.744-100.41472-83.92064-143.16288-18.26688-21.58592-50.57408-24.27392-72.15872-6.0096-21.58464 18.26688-24.2752 50.5728-6.00832 72.15872C861.4336 334.42816 893.44 421.88032 893.44 512c0 210.32576-171.11424 381.44-381.44 381.44-210.32704 0-381.44-171.11424-381.44-381.44 0-210.32704 171.11296-381.44 381.44-381.44 60.48896 0 118.30784 13.72672 171.85152 40.8 25.2288 12.75648 56.03328 2.64704 68.7936-22.58816 12.76032-25.23392 2.64576-56.03456-22.58816-68.7936C662.05312 45.5936 588.68992 28.16 512 28.16c-65.29536 0-128.66432 12.8-188.34688 38.04416-57.62176 24.37248-109.36064 59.2512-153.7792 103.66976-44.41856 44.41856-79.29856 96.15744-103.66976 153.77792C40.96 383.3344 28.16 446.70464 28.16 512c0 65.29536 12.8 128.6656 38.04416 188.34688 24.37248 57.62176 59.2512 109.36064 103.66976 153.7792s96.15744 79.29856 153.7792 103.66976C383.33568 983.04 446.70464 995.84 512 995.84c65.29536 0 128.6656-12.8 188.34816-38.04416 57.62176-24.3712 109.36064-59.2512 153.77792-103.66976 44.41856-44.41856 79.29856-96.15744 103.66976-153.7792C983.04 640.6656 995.84 577.29536 995.84 512 995.84 453.79328 985.6 396.85504 965.40416 342.76608z" p-id="36200" data-spm-anchor-id="a313x.7781069.0.i64" class="selected" fill="#ffffff"></path><path d="M720.2304 259.00032C701.74464 244.48 680.9344 235.22176 657.61024 231.7824c-5.87264-0.86656-11.74016-1.77408-17.61024-2.6624-2.56 0-5.12 0-7.68 0-6.2976 0.88832-12.59776 1.77664-18.89536 2.66496-30.0672 4.24192-55.17312 18.496-76.13056 39.71456-17.02528 17.23904-28.69632 38.09024-34.90304 61.68448-5.57184 21.1776-7.0144 42.74688-2.57152 64.192 5.10848 24.66048 16.15744 47.03616 29.41824 68.30464 7.24224 11.616 14.76224 23.05792 22.55232 35.19232-12.04864 3.9296-23.49056 7.76704-35.02208 11.31008-1.72928 0.5312-3.98848 0.01536-5.82144-0.576-13.92-4.49408-27.8336-9.01376-41.66784-13.76-8.54912-2.93376-16.95744-6.2784-25.57824-9.49376 2.10432-4.24832 3.84-7.60576 5.44768-11.02208 7.80928-16.5888 11.04384-34.02752 7.46624-52.06528-3.79904-19.15264-12.52608-35.75168-28.03328-48.42496-18.69312-15.2768-40.08064-20.91264-63.15136-15.14624-36.38656 9.09312-55.34592 36.95104-59.1936 71.58016-2.12864 19.1616 4.0448 36.83072 13.3632 53.50912 1.90592 3.41248 4.36608 8.33792 3.24608 11.3152-6.25024 16.61952-13.55136 32.84352-20.43776 49.22624-9.47584 22.54848-18.90048 45.11872-28.34944 67.67872-10.49856 25.06496-21.00352 50.12736-31.50208 75.1936-6.98752 16.68352-13.96864 33.37088-21.26592 50.80832 1.76128-0.24576 2.80704-0.18944 3.6864-0.54528 48.832-19.70304 97.632-39.48928 146.51904-59.05536 2.80704-1.12384 6.5856-1.3696 9.44256-0.49536 5.9712 1.82784 11.67232 4.57984 17.408 7.12192 38.83904 17.21728 77.64224 34.51648 116.53376 51.61344 1.97376 0.86784 4.99712 0.8832 6.95552 0.00896 17.78688-7.95008 35.49184-16.08448 53.12768-24.36096 24.29696-11.40352 48.4864-23.03616 72.81792-34.36416 1.96608-0.9152 4.93824-0.94976 6.9888-0.18176 9.58336 3.59808 18.9952 7.65312 28.49408 11.48416 30.80832 12.42496 61.632 24.81664 92.44544 37.23648 9.53984 3.84512 19.06048 7.74144 29.25184 11.88224-0.1536-1.89824-0.01792-2.78144-0.31104-3.48672-12.97792-31.05024-25.98656-62.08768-39.00544-93.12-18.0352-42.98752-36.12032-85.95328-53.98272-129.01376-0.74368-1.79328-0.17664-4.97792 1.02016-6.60096 18.05312-24.50944 35.04896-49.62688 47.88992-77.37984 13.4272-29.0176 17.41184-59.2896 10.7008-90.39104C764.09472 308.0896 747.25632 280.22784 720.2304 259.00032zM636.4864 303.61856c37.6768 0.86656 65.45152 28.8256 65.74848 68.0832 0.28672 37.60256-26.88 66.65088-66.7328 68.74624-35.82464-1.2864-66.91712-30.72512-66.00064-70.37312C570.34752 333.60256 599.72224 302.77248 636.4864 303.61856zM381.78304 402.10816c19.95776-0.56448 37.25824 19.1488 35.62624 38.66752 1.95072 17.76128-14.99904 38.50624-35.26528 38.17216-21.22752-0.34944-36.58624-17.63456-36.22016-38.24896C346.32576 417.91616 360.87808 402.7008 381.78304 402.10816zM751.86688 691.56736c-15.77216-7.86048-30.50112-15.17952-45.21216-22.5344-18.04288-9.02016-36.04224-18.12736-54.15168-27.01312-1.74848-0.8576-4.50688-1.21216-6.176-0.45056-24.38272 11.15136-48.64512 22.56256-72.96768 33.84832-17.09952 7.93344-34.21952 15.82976-51.41248 23.5584-1.60768 0.72192-4.07552 0.7296-5.7024 0.03456-28.85888-12.2944-57.65376-24.74112-86.45376-37.17504-15.7376-6.79552-31.4304-13.69472-47.23072-20.34048-1.58208-0.66688-4.04864-0.47488-5.632 0.29312-22.09792 10.72512-44.07936 21.68576-66.16192 32.4416-10.27456 5.00352-20.70656 9.68832-32.42112 15.1488 2.2976-6.93248 4.02688-12.62208 6.05952-18.20288 11.36384-31.19488 22.82624-62.3552 34.20288-93.54624 5.22368-14.31936 10.35904-28.67072 15.46368-43.0336 1.43872-4.04608 4.07936-7.31136 8.30592-6.88 2.42688 0.24832 5.16864 2.912 6.73152 5.19808 10.27328 15.01696 20.26112 30.2272 30.35264 45.3696 0.59392 0.8896 1.2736 1.72544 2.16448 2.9248 14.73408-21.80736 29.056-43.00544 43.50976-64.39552 25.90336 8.92672 51.46496 17.31584 76.67968 26.64064 9.37088 3.46496 17.62176 3.67616 26.89536-0.09088 12.75008-5.18016 26.07744-8.92544 38.9952-13.7216 3.37152-1.25312 5.1264-0.45056 6.86976 2.03904 18.86464 26.91072 37.7344 53.82016 56.56448 80.75648 1.42336 2.03648 2.56 4.27392 4.02688 6.74816 19.18592-27.81824 38.19136-55.3728 57.86368-83.89376C712.81536 587.83744 732.11136 639.0912 751.86688 691.56736z" p-id="36201" data-spm-anchor-id="a313x.7781069.0.i66" class="selected" fill="#ffffff"></path></svg>