<svg t="1660094095247" class="icon" viewBox="0 0 1024 1024" version="1.1" xmlns="http://www.w3.org/2000/svg" p-id="1820" width="200" height="200"><path d="M511.7 64.7c-247.4 0-447.9 200.5-447.9 447.9s200.5 447.9 447.9 447.9S959.6 760 959.6 512.6 759 64.7 511.7 64.7z m0.3 768.1c-176.8 0-320.1-143.3-320.1-320.1S335.2 192.6 512 192.6s320.1 143.3 320.1 320.1S688.8 832.8 512 832.8z" p-id="1821" fill="#ffffff"></path><path d="M371.5 455.3H85v112.1h282.7c-5.7-16-8.8-33.2-8.8-51.2 0-21.7 4.5-42.2 12.6-60.9zM919.6 455.3H651.5c8.1 18.6 12.6 39.2 12.6 60.9 0 18-3.1 35.2-8.8 51.2h264.3V455.3zM454 654v286.5h112V657.8c-16 5.7-33.2 8.8-51.2 8.8-21.6 0-42.2-4.5-60.8-12.6zM512.5 401.9c-61 0-110.5 49.5-110.5 110.5S451.4 623 512.5 623 623 573.5 623 512.5s-49.5-110.6-110.5-110.6z m-0.5 148.4c-20.8 0-37.7-16.9-37.7-37.7s16.9-37.7 37.7-37.7 37.7 16.9 37.7 37.7-16.9 37.7-37.7 37.7z" p-id="1822" fill="#ffffff"></path></svg>