<svg t="1660095352824" class="icon" viewBox="0 0 1024 1024" version="1.1" xmlns="http://www.w3.org/2000/svg" p-id="2965" width="200" height="200"><path d="M441.887 611.994l-2.803-0.82-4.265 14.577 8.018 2.344 0.692-2.368-5.212-1.527zM557.997 666.528l-2.667-0.781 1.575-5.379 2.667 0.782zM542.913 641.629c0.187 0.267 0.236 0.874 0.181 1.075l-0.882 3.007-2.214-0.647 1.154-3.949-2.667-0.778-1.154 3.945-7.195-2.104 0.527-1.8 1.631 0.477 0.627-2.146-8.775-2.566-0.627 2.146 4.706 1.377-0.527 1.799-5.384-1.574-0.627 2.148 5.384 1.575-1.457 4.975-1.459-0.427-0.55-0.118a4.06 4.06 0 0 0-1.728 7.917 4.059 4.059 0 0 0 5.037-2.758l0.568-1.945 3.812 1.116 0.574-1.956-3.812-1.116 1.456-4.976 7.192 2.102-1.883 6.436a13.294 13.294 0 0 1-2.347-0.46l-0.06 2.314c0.557 0.16 1.146 0.281 1.758 0.361l-3.53 12.072 6.295 1.842 0.627-2.146-3.628-1.063 3.102-10.607a22.99 22.99 0 0 0 4.937-0.813l-0.482-2.173c-1.299 0.361-2.56 0.595-3.782 0.695l1.66-5.676 2.217 0.647 2.664 0.778 0.63-2.146 0.634-2.164c0.146-0.675-0.021-1.545-0.29-2.018l-2.313-0.678zM524.4 652.705c-0.376 1.021-0.944 1.581-2.096 1.242-1.023-0.298-1.554-1.459-1.258-2.471 0.391-1.338 1.358-1.64 2.504-1.371l1.482 0.436-0.632 2.164zM553.911 650.105l-1.9 6.491c-0.394 0.272-1.151 0.532-1.713 0.367-0.731-0.214-1.246-1.234-1.237-1.23l2.243-7.667 5.608 1.641 0.628-2.146-8.275-2.422-2.937 10.042c-0.035 1.861 1.43 3.599 3.279 4.141 1.851 0.542 4.022-0.133 4.996-1.722l1.966-6.716-2.658-0.779zM560.147 659.227l-2.667-0.78 1.295-4.43 2.667 0.779zM517.903 639.573l-1.899 6.49c-0.394 0.274-1.151 0.532-1.714 0.366-0.731-0.213-1.246-1.231-1.237-1.228l2.243-7.669 5.609 1.64 0.627-2.146-8.275-2.421-2.939 10.042c-0.032 1.864 1.43 3.603 3.283 4.145 1.85 0.54 4.019-0.135 4.993-1.724l1.965-6.719-2.656-0.776zM451.373 614.771l-2.806-0.824-4.262 14.577 8.018 2.344 0.693-2.368-5.212-1.523zM495.952 643.627l8.151 2.387 0.687-2.351-5.346-1.563 1.187-4.058 4.756 1.392 0.673-2.29-4.761-1.395 1.034-3.525 5.04 1.477 0.687-2.353-7.846-2.294zM471.706 620.716l-1.702 5.82-4.966-1.454 1.702-5.819-2.806-0.82-4.262 14.574 2.806 0.823 1.832-6.275 4.966 1.454-1.835 6.271 2.806 0.822 4.262-14.576zM471.621 636.512l2.843 0.832 2.128-3.551 3.904 1.14-0.083 4.151 2.939 0.861 0.189-15.77-3.528-1.029-8.392 13.366z m9.345-10.577l0.057 0.018c-0.024 0.319-0.051 0.66-0.077 1.024-0.027 0.363-0.053 0.73-0.074 1.098-0.024 0.373-0.042 0.719-0.057 1.048l-0.098 3.572-3.107-0.909 1.847-3.081c0.154-0.269 0.32-0.562 0.495-0.882 0.177-0.319 0.349-0.642 0.523-0.965 0.175-0.325 0.34-0.633 0.491-0.923zM496.115 627.854l-3.573 5.949c-0.482 0.79-0.953 1.593-1.417 2.412-0.468 0.817-0.907 1.64-1.327 2.466l-0.056-0.018c0.103-0.923 0.177-1.854 0.23-2.784 0.051-0.931 0.091-1.862 0.124-2.789l0.234-6.926-3.069-0.899-0.036 15.811 3.203 0.938 8.698-13.276-3.011-0.884zM572.737 662.418l-0.447 1.525-2.991-0.878 0.447-1.525zM421.604 621.882l2.841 0.833 2.13-3.553 3.905 1.143-0.083 4.152 2.936 0.858 0.189-15.769-3.525-1.03-8.393 13.366z m9.344-10.574l0.059 0.015c-0.027 0.319-0.05 0.663-0.077 1.024-0.03 0.366-0.053 0.733-0.074 1.101-0.023 0.37-0.044 0.716-0.056 1.045l-0.098 3.572-3.108-0.908 1.847-3.082a78.83 78.83 0 0 0 1.015-1.847c0.175-0.326 0.341-0.633 0.492-0.92z" p-id="2966" fill="#ffffff"></path><path d="M512 0C229.23 0 0 229.23 0 512c0 282.771 229.23 512 512 512s512-229.229 512-512C1024 229.23 794.77 0 512 0z m221.591 556.134v112.567c0 5.57-4.155 11.83-9.284 13.991L616.041 728.33c-5.126 2.158-9.284-0.601-9.284-6.168V609.597c0-5.562 4.158-11.83 9.284-13.99l108.266-45.632c5.129-2.162 9.284 0.593 9.284 6.159z m-20.336-14.815l-106.738 44.996c-5.232 2.209-13.955 2.922-19.48 1.599L437.959 552.19c-5.522-1.323-5.759-4.185-0.521-6.393l106.741-44.993c5.236-2.208 13.958-2.924 19.483-1.598l149.068 35.72c5.527 1.324 5.76 4.185 0.525 6.393z m-125.748 69.725V724.32c0 5.582-4.401 9.051-9.829 7.752l-150.746-36.127c-5.428-1.305-9.829-6.884-9.829-12.462V570.206c0-5.579 4.401-9.053 9.829-7.751l150.746 36.129c5.427 1.299 9.826 6.878 9.829 12.46zM450.402 213.245c57.796 0 104.651 46.852 104.651 104.648 0 57.8-46.855 104.651-104.651 104.651-57.797 0-104.651-46.852-104.651-104.651 0-57.793 46.854-104.648 104.651-104.648z m98.211 565.574c-3.504 18.804-19.931 31.936-38.384 31.936a39.5 39.5 0 0 1-7.216-0.666c-1.131-0.296-85.02-15.66-154.019-41.726-23.187-8.909-44.759-18.643-63.21-32.112-10.447-7.87-20.584-16.978-28.034-31.455-3.868-7.666-6.618-17.182-6.597-27.31 0-1.004 0.029-1.803 0.05-2.433l0.009-0.196-0.015 0.43c0.775-18.303 4.626-37.464 9.58-57.865 4.984-20.265 11.247-41.264 17.4-60.448 12.303-38.325 24.148-69.343 24.34-69.742 13.372-28.011 35.499-26.841 76.561-26.841h112.231c50.489 0 71.722 4.502 78.053 29.487l-2.747-0.657c-7.748-1.855-19.986-0.853-27.33 2.243L419.21 542.077c-7.344 3.093-13.298 12.061-13.295 20.031v126.66c0 2.113 0.444 4.224 1.238 6.221-0.693-0.222-1.383-0.443-2.076-0.669-24.899-7.988-46.553-16.902-59.516-24.512a77.34 77.34 0 0 1-4.75-2.939c0.802-5.285 8.657-57.367 15.074-95.943-6.805 20.632-14.012 44.158-19.173 65.173-3.4 13.613-5.822 26.402-6.843 35.394 2.273 1.88 5.916 4.512 10.613 7.193 14.234 8.357 37.304 17.616 61.47 25.372 48.557 15.734 101.998 26.578 113.223 28.739 1.507 0.293 2.17 0.42 2.17 0.42 21.229 3.96 35.228 24.376 31.268 45.602z m224.191-44.776c-0.968 20.949-18.268 37.28-39.026 37.28-0.612 0-1.229-0.016-1.841-0.045-0.563-0.028-19.434-0.902-45.375-3.741-26.007-2.874-58.812-7.523-88.87-15.987-6.879-2.028-13.601-4.156-20.186-6.597l-0.163-0.667 8.083 1.936c7.749 1.854 19.987 0.853 27.33-2.243l120.065-50.617c0.216-0.088 0.427-0.201 0.64-0.302 0.192 0.009 0.379 0.021 0.547 0.03a73.28 73.28 0 0 0 1.561 0.076c21.569 1.007 38.244 19.301 37.235 40.877z" p-id="2967" fill="#ffffff"></path><path d="M568.733 649.094l-2.509-0.735-1.031 2.94 16.892 4.94 0.627-2.145-14.225-4.162zM559.303 652.17l1.296-4.432 2.667 0.78-1.296 4.432zM571.108 656.82l2.993 0.876-0.446 1.524-2.993-0.875zM454.185 626.185l0.567-1.933 5.193 1.522-0.566 1.933z" p-id="2968" fill="#ffffff"></path><path d="M566.31 652.516l-1.37 4.685-1.355-0.396-0.628 2.149 1.355 0.396-1.37 4.686 10.53 3.078 0.628-2.146-7.864-2.3 0.743-2.54 8.847 2.588-1.504 5.144c-0.136 0.455-0.867 0.858-1.323 0.726l-7.825-2.292-0.627 2.149c3.516 1.027 6.348 1.855 9.864 2.886 0.888 0.263 1.915-0.444 2.143-1.211l1.938-6.621 1.355 0.397 0.628-2.149-1.355-0.394 1.37-4.688c-4.727-1.384-9.454-2.766-14.18-4.147z m10.142 8.052l-8.847-2.587 0.743-2.539 8.847 2.587-0.743 2.539z" p-id="2969" fill="#ffffff"></path></svg>