<svg t="1660095482520" class="icon" viewBox="0 0 1024 1024" version="1.1" xmlns="http://www.w3.org/2000/svg" p-id="9017" width="200" height="200"><path d="M513.988284 63.900356c-247.086491 0-448.099644 201.013153-448.099644 448.099644S266.901793 960.099644 513.988284 960.099644c247.086491 0 448.099644-201.013153 448.099644-448.099644S761.074775 63.900356 513.988284 63.900356zM458.893478 338.004177c2.073218-2.338255 5.712095-3.50687 10.939143-3.50687l187.978279 0c5.204535 0 8.909927 1.168616 11.137665 3.50687 2.205225 2.338255 3.329838 5.866614 3.329838 10.564613 0 4.432962-1.124614 8.006348-3.329838 10.740622-2.227738 2.735297-5.933129 4.102435-11.137665 4.102435L469.832621 363.411847c-5.227048 0-8.865925-1.367137-10.939143-4.102435-2.095731-2.734274-3.13234-6.307659-3.13234-10.740622C455.762161 343.871815 456.79877 340.342432 458.893478 338.004177zM441.315124 433.746752c2.073218-2.338255 5.712095-3.50687 10.939143-3.50687l223.531006 0c5.227048 0 8.93244 1.168616 11.137665 3.50687 2.205225 2.359744 3.308349 5.866614 3.308349 10.564613 0 4.433986-1.103124 8.006348-3.308349 10.741645-2.205225 2.734274-5.910617 4.102435-11.137665 4.102435L558.164413 459.155445c-7.565303 14.071484-14.534018 26.77583-20.908192 38.112016-6.395664 11.336186-12.571317 21.680788-18.570961 31.054273-5.999644 9.395998-11.866259 18.173918-17.599843 26.400277-5.734608 8.204869-11.711739 16.210193-17.952884 24.01802-0.529049 0.529049-0.485047 0.992607 0.176009 1.367137 0.662079 0.397043 1.235131 0.595564 1.76418 0.595564 25.539676-2.094708 51.52142-3.837398 77.965699-5.27105s52.55803-3.197832 78.362742-5.293563c-4.432962-10.939143-9.30697-22.011316-14.644535-33.215496-5.359055-11.181667-11.292184-22.650883-17.798365-34.384112-3.638877-6.771217-5.227048-12.042267-4.697999-15.835663 0.529049-3.771907 2.602268-6.572696 6.263657-8.403391 4.675486-2.844791 8.998955-3.573385 12.880355-2.13871 3.925403 1.433652 8.071839 6.307659 12.527314 14.644535 5.205559 10.16757 9.881045 19.739577 14.071484 28.737508 4.146437 8.976442 8.204869 18.107403 12.108782 27.348881 3.903913 9.262968 7.829316 18.901489 11.711739 28.91454 3.925403 10.035564 8.071839 21.173229 12.527314 33.414017 2.867304 8.359388 3.705392 14.732539 2.514263 19.166525-1.147126 4.411473-4.609994 7.54279-10.343579 9.373485-4.167926 1.301645-7.962346 0.639566-11.314697-1.962701-3.396353-2.602268-6.263657-7.674796-8.601912-15.240099-1.323135-3.638877-2.558265-7.410783-3.727904-11.337209-1.168616-3.90289-2.403746-7.674796-3.705392-11.314697l-168.437224 11.314697c-25.275663 2.359744-37.913495-3.638877-37.913495-17.974373 0-3.109828 0.727571-6.572696 2.139733-10.343579 1.433652-3.771907 3.970428-7.631818 7.630794-11.534707 7.03523-8.071839 13.739932-16.276708 20.114107-24.613584 6.395664-8.336876 12.527314-16.938788 18.372439-25.804712 5.866614-8.844435 11.57871-18.173918 17.202801-27.944446 5.601578-9.770528 11.270694-20.379143 17.004279-31.848359l-75.032904 0c-5.227048 0-8.865925-1.367137-10.939143-4.102435-2.117221-2.735297-3.13234-6.307659-3.13234-10.741645C438.183807 439.613366 439.197904 436.107519 441.315124 433.746752zM342.021677 325.102333c2.867304-2.844791 6.087649-4.476965 9.594519-4.874007 3.50687-0.397043 8.138354 1.632173 13.872962 6.065136 7.54279 5.977132 15.96767 13.277398 25.187659 21.878287 9.262968 8.601912 18.040888 17.181311 26.400277 25.783223 4.940522 5.227048 7.674796 9.770528 8.204869 13.674441 0.50756 3.925403-1.433652 7.697309-5.866614 11.336186l-0.37453 0c-4.190439 3.396353-7.962346 4.963035-11.336186 4.697999-3.396353-0.265036-7.565303-3.373841-12.527314-9.373485-3.638877-3.903913-7.54279-8.071839-11.711739-12.504802-4.167926-4.433986-8.403391-8.668427-12.704346-12.704346-4.300956-4.03592-8.601912-7.873318-12.901845-11.534707-4.278443-3.638877-8.271384-6.771217-11.910261-9.373485-3.926426-2.867304-6.395664-6.462179-7.432273-10.741645C337.478198 333.13017 338.647837 329.027735 342.021677 325.102333zM699.826829 678.408007c-1.962701 2.073218-5.8001 3.13234-11.534707 3.13234L509.290285 681.540348c-13.542434 0-25.38618-0.595564-35.553751-1.765203-10.145058-1.168616-19.409049-3.329838-27.745924-6.462179-8.336876-3.109828-16.011672-7.410783-23.069415-12.880355-7.013741-5.469572-14.20349-12.505825-21.482267-21.106714-4.432962 9.373485-10.5421 17.908882-18.372439 25.584702-7.807826 7.697309-17.313318 15.173584-28.517497 22.473851-4.455475 2.867304-8.93244 4.03592-13.498432 3.529383-4.54348-0.530073-8.138354-2.602268-10.740622-6.263657-3.109828-4.433986-4.03592-8.535397-2.735297-12.307304 1.301645-3.771907 5.337565-7.498788 12.108782-11.137665 5.998621-3.396353 11.601222-7.432273 16.805758-12.108782 5.205559-4.697999 9.704013-9.770528 13.498432-15.240099 3.749394-5.469572 6.748704-11.072173 8.976442-16.806781 2.227738-5.734608 3.330862-11.601222 3.330862-17.599843L382.294916 467.756333c0-3.13234-1.059122-4.697999-3.13234-4.697999l-39.479153 0c-5.734608 0-9.572006-1.169639-11.513218-3.50687-1.962701-2.338255-2.955308-5.999644-2.955308-10.939143 0-5.204535 0.992607-9.064446 2.955308-11.534707 1.941212-2.470261 5.77861-3.705392 11.513218-3.705392l42.213427 0c5.999644 0 10.939143 0.50756 14.865569 1.565658 3.8814 1.036609 6.969739 2.911306 9.174963 5.646604 2.205225 2.735297 3.771907 6.462179 4.675486 11.138688 0.926092 4.697999 1.367137 10.829649 1.367137 18.372439l0 119.981628c0 2.338255 0 4.697999 0 7.03523s-0.132006 4.564969-0.397043 6.639211c6.263657 9.902534 12.527314 17.974373 18.790972 24.239054 6.241145 6.242168 13.145391 11.20418 20.688181 14.843056 7.565303 3.66139 16.034185 6.131651 25.40767 7.432273 9.395998 1.300622 20.335141 1.962701 32.818453 1.962701l179.001837 0c5.734608 0 9.572006 1.168616 11.534707 3.50687s2.932796 5.998621 2.932796 10.939143C702.759625 672.408363 701.789531 676.312276 699.826829 678.408007z" p-id="9018" fill="#ffffff"></path></svg>