<svg t="1660291259483" class="icon" viewBox="0 0 1024 1024" version="1.1" xmlns="http://www.w3.org/2000/svg" p-id="11912" width="200" height="200"><path d="M512 512m-512 0a512 512 0 1 0 1024 0 512 512 0 1 0-1024 0Z" fill="#9EEBBE" p-id="11913" data-spm-anchor-id="a313x.7781069.0.i13" class="selected"></path><path d="M380.830476 628.662857h-133.607619a8.43581 8.43581 0 0 0-8.289524 8.582095v138.752a8.777143 8.777143 0 0 0 2.267429 6.38781c1.560381 1.706667 3.730286 2.681905 6.022095 2.681905h133.607619c4.583619 0 8.289524-3.85219 8.289524-8.582096v-139.215238a8.752762 8.752762 0 0 0-2.438095-6.095238 8.118857 8.118857 0 0 0-5.851429-2.511238z m211.431619 0h-133.217524a8.655238 8.655238 0 0 0-8.484571 8.630857v139.166476c0.121905 4.778667 3.900952 8.606476 8.484571 8.606477h133.217524a8.655238 8.655238 0 0 0 8.484572-8.606477v-139.166476a8.655238 8.655238 0 0 0-8.484572-8.630857z m211.626667 0h-133.217524a8.655238 8.655238 0 0 0-8.484571 8.630857v139.166476c0.121905 4.778667 3.900952 8.606476 8.484571 8.606477h133.217524a8.655238 8.655238 0 0 0 8.484571-8.606477v-139.166476a8.655238 8.655238 0 0 0-8.484571-8.630857zM634.977524 211.626667h-218.648381c-7.192381 0-13.55581 4.559238-13.55581 10.288762v166.131809c0 5.705143 6.095238 10.288762 13.55581 10.288762h218.648381c7.460571 0 13.55581-4.583619 13.555809-10.288762V221.915429c0-5.729524-6.095238-10.288762-13.555809-10.288762z m87.137524 400.091428v-93.817905h-178.151619v93.574096h-35.644953v-93.574096h-179.126857v93.793524H293.546667v-117.394285h213.820952v-82.651429h36.254476v82.651429h214.137905v117.394285h-35.644952z" fill="#FFFFFF" p-id="11914"></path></svg>