<svg t="1660103913924" class="icon" viewBox="0 0 1024 1024" version="1.1" xmlns="http://www.w3.org/2000/svg" p-id="4876" width="200" height="200"><path d="M929.408 202.752l-205.269333 24.661333a8.234667 8.234667 0 0 0-4.864 13.994667l61.141333 60.928-232.96 232.32-104.874667-104.533333a16.469333 16.469333 0 0 0-23.296 0l-331.52 330.752a8.234667 8.234667 0 0 0 0 11.605333l46.336 46.464a8.277333 8.277333 0 0 0 11.648 0l285.184-284.288 104.789334 104.533333c6.485333 6.357333 16.896 6.357333 23.296 0l279.722666-278.784 61.098667 60.970667c4.821333 4.821333 13.226667 1.962667 14.037333-4.821333l24.746667-204.8a8.106667 8.106667 0 0 0-9.216-9.002667z" p-id="4877" fill="#d81e06"></path></svg>