<?xml version="1.0" standalone="no"?><!DOCTYPE svg PUBLIC "-//W3C//DTD SVG 1.1//EN" "http://www.w3.org/Graphics/SVG/1.1/DTD/svg11.dtd"><svg xmlns:xlink="http://www.w3.org/1999/xlink" xmlns="http://www.w3.org/2000/svg" version="1.1" width="200" height="200" viewBox="0 0 200 200"><defs><style type="text/css"><![CDATA[
@font-face {
  font-family: "ifont";
  src: url("//at.alicdn.com/t/font_1442373896_4754455.eot?#iefix") format("embedded-opentype"), url("//at.alicdn.com/t/font_1442373896_4754455.woff") format("woff"), url("//at.alicdn.com/t/font_1442373896_4754455.ttf") format("truetype"), url("//at.alicdn.com/t/font_1442373896_4754455.svg#ifont") format("svg");
}

]]></style></defs><g class="transform-group"><g transform="scale(0.1953125, 0.1953125)"><path d="M557.311759 513.248864l265.280473-263.904314c12.54369-12.480043 12.607338-32.704421 0.127295-45.248112-12.512727-12.576374-32.704421-12.607338-45.248112-0.127295L512.127295 467.904421 249.088241 204.063755c-12.447359-12.480043-32.704421-12.54369-45.248112-0.063647-12.512727 12.480043-12.54369 32.735385-0.063647 45.280796l262.975407 263.775299-265.151458 263.744335c-12.54369 12.480043-12.607338 32.704421-0.127295 45.248112 6.239161 6.271845 14.463432 9.440452 22.687703 9.440452 8.160624 0 16.319527-3.103239 22.560409-9.311437l265.216826-263.807983 265.440452 266.240344c6.239161 6.271845 14.432469 9.407768 22.65674 9.407768 8.191587 0 16.352211-3.135923 22.591372-9.34412 12.512727-12.480043 12.54369-32.704421 0.063647-45.248112L557.311759 513.248864z" fill="#272636"></path></g></g></svg>