<svg t="1660291173147" class="icon" viewBox="0 0 1024 1024" version="1.1" xmlns="http://www.w3.org/2000/svg" p-id="10594" width="200" height="200"><path d="M512 512m-192 0a192 192 0 1 0 384 0 192 192 0 1 0-384 0Z" p-id="10595" fill="#7AAAE6"></path><path d="M960 512c0-53.6-9.408-105.92-27.616-155.2a32 32 0 0 0-60.032 22.144c15.584 42.24 23.648 87.072 23.648 133.056 0 22.048-2.272 43.552-5.856 64.576A63.808 63.808 0 0 0 832 640c0 18.88 8.32 35.68 21.344 47.392C789.6 811.168 660.832 896 512 896 299.936 896 128 724.064 128 512c0-22.048 2.272-43.552 5.856-64.576A63.808 63.808 0 0 0 192 384c0-18.88-8.32-35.68-21.344-47.392C234.4 212.832 363.168 128 512 128c33.312 0 65.824 4.736 97.312 12.96A64.064 64.064 0 0 0 736 128a64 64 0 0 0-64-64c-16.256 0-30.944 6.272-42.24 16.256A448.864 448.864 0 0 0 512 64C331.712 64 176.736 170.72 105.664 324.224A63.872 63.872 0 0 0 64 384c0 12.576 3.744 24.224 10.016 34.112A449.344 449.344 0 0 0 64 512c0 247.424 200.576 448 448 448 180.288 0 335.264-106.72 406.336-260.224A63.872 63.872 0 0 0 960 640c0-12.576-3.744-24.224-10.016-34.112 6.464-30.304 10.016-61.664 10.016-93.888z" p-id="10596" fill="#7AAAE6"></path></svg>