<?xml version="1.0" encoding="utf-8"?>
<svg version="1.1" xmlns:xlink="http://www.w3.org/1999/xlink" width="15px" height="15px" xmlns="http://www.w3.org/2000/svg">
  <g transform="matrix(1 0 0 1 -395 -383 )">
    <path d="M 3.7353515625 1.005859375  C 4.88444010416667 0.335286458333332  6.13932291666667 0  7.5 0  C 8.86067708333333 0  10.1155598958333 0.335286458333332  11.2646484375 1.005859375  C 12.4137369791667 1.67643229166667  13.3235677083333 2.58626302083333  13.994140625 3.7353515625  C 14.6647135416667 4.88444010416667  15 6.13932291666666  15 7.5  C 15 8.86067708333333  14.6647135416667 10.1155598958333  13.994140625 11.2646484375  C 13.3235677083333 12.4137369791667  12.4137369791667 13.3235677083333  11.2646484375 13.994140625  C 10.1155598958333 14.6647135416667  8.86067708333333 15  7.5 15  C 6.13932291666667 15  4.88444010416667 14.6647135416667  3.7353515625 13.994140625  C 2.58626302083333 13.3235677083333  1.67643229166667 12.4137369791667  1.005859375 11.2646484375  C 0.335286458333333 10.1155598958333  0 8.86067708333333  0 7.5  C 0 6.13932291666666  0.335286458333333 4.88444010416667  1.005859375 3.7353515625  C 1.67643229166667 2.58626302083333  2.58626302083333 1.67643229166667  3.7353515625 1.005859375  Z M 8.662109375 12.4072265625  C 8.720703125 12.3453776041667  8.75 12.2688802083333  8.75 12.177734375  L 8.75 10.322265625  C 8.75 10.2311197916667  8.720703125 10.1546223958333  8.662109375 10.0927734375  C 8.603515625 10.0309244791667  8.53190104166667 10  8.447265625 10  L 6.572265625 10  C 6.48763020833333 10  6.41276041666667 10.0325520833333  6.34765625 10.09765625  C 6.28255208333333 10.1627604166667  6.25 10.2376302083333  6.25 10.322265625  L 6.25 12.177734375  C 6.25 12.2623697916667  6.28255208333333 12.3372395833333  6.34765625 12.40234375  C 6.41276041666667 12.4674479166667  6.48763020833333 12.5  6.572265625 12.5  L 8.447265625 12.5  C 8.53190104166667 12.5  8.603515625 12.4690755208333  8.662109375 12.4072265625  Z M 8.6279296875 8.9892578125  C 8.68977864583333 8.9404296875  8.72395833333333 8.88346354166666  8.73046875 8.818359375  L 8.90625 2.75390625  C 8.90625 2.67578125  8.87369791666667 2.6171875  8.80859375 2.578125  C 8.74348958333333 2.52604166666667  8.66536458333333 2.5  8.57421875 2.5  L 6.42578125 2.5  C 6.33463541666667 2.5  6.25651041666667 2.52604166666667  6.19140625 2.578125  C 6.12630208333333 2.6171875  6.09375 2.67578125  6.09375 2.75390625  L 6.259765625 8.818359375  C 6.259765625 8.88346354166666  6.29231770833333 8.9404296875  6.357421875 8.9892578125  C 6.42252604166667 9.0380859375  6.50065104166667 9.0625  6.591796875 9.0625  L 8.3984375 9.0625  C 8.48958333333333 9.0625  8.56608072916667 9.0380859375  8.6279296875 8.9892578125  Z " fill-rule="nonzero" fill="#cccccc" stroke="none" transform="matrix(1 0 0 1 395 383 )" />
  </g>
</svg>