<?xml version="1.0" encoding="utf-8"?>
<svg version="1.1" xmlns:xlink="http://www.w3.org/1999/xlink" width="15px" height="15px" xmlns="http://www.w3.org/2000/svg">
  <g transform="matrix(1 0 0 1 -1515 -118 )">
    <path d="M 14.6630859375 8.8370201691607  C 14.7249348958333 8.89882888744307  14.755859375 8.97202342225114  14.755859375 9.05660377358491  C 14.755859375 9.08913467794405  14.7526041666667 9.11190631099544  14.74609375 9.1249186727391  C 14.3294270833333 10.8685751463891  13.45703125 12.2820429407938  12.12890625 13.3653220559532  C 10.80078125 14.4486011711126  9.24479166666667 14.9902407286923  7.4609375 14.9902407286923  C 6.51041666666667 14.9902407286923  5.5908203125 14.811320754717  4.7021484375 14.4534808067664  C 3.8134765625 14.0956408588159  3.02083333333333 13.5849056603774  2.32421875 12.9212752114509  L 1.064453125 14.1802212101496  C 0.940755208333333 14.3038386467144  0.794270833333333 14.3656473649967  0.625 14.3656473649967  C 0.455729166666667 14.3656473649967  0.309244791666667 14.3038386467144  0.185546875 14.1802212101496  C 0.0618489583333333 14.0566037735849  0 13.9102147039688  0 13.7410540013012  L 0 9.36890045543266  C 0 9.19973975276513  0.0618489583333333 9.05335068314899  0.185546875 8.92973324658426  C 0.309244791666667 8.80611581001952  0.455729166666667 8.74430709173715  0.625 8.74430709173715  L 5 8.74430709173715  C 5.16927083333333 8.74430709173715  5.31575520833333 8.80611581001952  5.439453125 8.92973324658426  C 5.56315104166667 9.05335068314899  5.625 9.19973975276513  5.625 9.36890045543266  C 5.625 9.5380611581002  5.56315104166667 9.68445022771633  5.439453125 9.80806766428107  L 4.1015625 11.1450878334418  C 4.56380208333333 11.5744957709824  5.087890625 11.9063109954457  5.673828125 12.1405335068315  C 6.259765625 12.3747560182173  6.86848958333333 12.4918672739102  7.5 12.4918672739102  C 8.37239583333333 12.4918672739102  9.18619791666667 12.2804163955758  9.94140625 11.857514638907  C 10.6966145833333 11.4346128822381  11.3020833333333 10.8523096942095  11.7578125 10.1106050748211  C 11.8294270833333 10  12.001953125 9.61938841899805  12.275390625 8.96877033181523  C 12.3274739583333 8.81912817176317  12.4251302083333 8.74430709173715  12.568359375 8.74430709173715  L 14.443359375 8.74430709173715  C 14.5279947916667 8.74430709173715  14.6012369791667 8.77521145087833  14.6630859375 8.8370201691607  Z M 14.814453125 0.810019518542616  C 14.9381510416667 0.93363695510735  15 1.08002602472349  15 1.24918672739102  L 15 5.6213402732596  C 15 5.79050097592713  14.9381510416667 5.93689004554327  14.814453125 6.060507482108  C 14.6907552083333 6.18412491867274  14.5442708333333 6.24593363695511  14.375 6.24593363695511  L 10 6.24593363695511  C 9.83072916666667 6.24593363695511  9.68424479166667 6.18412491867274  9.560546875 6.060507482108  C 9.43684895833333 5.93689004554327  9.375 5.79050097592713  9.375 5.6213402732596  C 9.375 5.45217957059206  9.43684895833333 5.30579050097592  9.560546875 5.18217306441119  L 10.908203125 3.83539362394275  C 9.94466145833334 2.94404684450228  8.80859375 2.49837345478204  7.5 2.49837345478204  C 6.62760416666667 2.49837345478204  5.81380208333333 2.70982433311646  5.05859375 3.1327260897853  C 4.30338541666667 3.55562784645413  3.69791666666667 4.13793103448276  3.2421875 4.87963565387118  C 3.17057291666667 4.99024072869226  2.998046875 5.37085230969421  2.724609375 6.02147039687703  C 2.67252604166667 6.17111255692908  2.57486979166667 6.24593363695511  2.431640625 6.24593363695511  L 0.48828125 6.24593363695511  C 0.403645833333333 6.24593363695511  0.330403645833333 6.21502927781392  0.2685546875 6.15322055953156  C 0.206705729166667 6.09141184124919  0.17578125 6.01821730644112  0.17578125 5.93363695510735  L 0.17578125 5.86532205595316  C 0.598958333333333 4.12166558230319  1.47786458333333 2.7081977878985  2.8125 1.6249186727391  C 4.14713541666667 0.541639557579701  5.70963541666667 0  7.5 0  C 8.45052083333333 0  9.375 0.180546519193234  10.2734375 0.541639557579701  C 11.171875 0.902732595966168  11.9694010416667 1.41184124918673  12.666015625 2.06896551724138  L 13.935546875 0.810019518542616  C 14.0592447916667 0.686402081977879  14.2057291666667 0.624593363695511  14.375 0.624593363695511  C 14.5442708333333 0.624593363695511  14.6907552083333 0.686402081977879  14.814453125 0.810019518542616  Z " fill-rule="nonzero" fill="#cccccc" stroke="none" transform="matrix(1 0 0 1 1515 118 )" />
  </g>
</svg>