<?xml version="1.0" encoding="utf-8"?>
<svg version="1.1" xmlns:xlink="http://www.w3.org/1999/xlink" width="11px" height="5px" xmlns="http://www.w3.org/2000/svg">
  <g transform="matrix(1 0 0 1 -2131 -933 )">
    <path d="M 10.7958984375 0.164930555555548  C 10.9319661458333 0.274884259259262  11 0.405092592592595  11 0.555555555555548  C 11 0.706018518518524  10.9319661458333 0.836226851851857  10.7958984375 0.946180555555548  L 5.9833984375 4.83506944444445  C 5.84733072916662 4.94502314814814  5.68619791666662 5  5.5 5  C 5.31380208333338 5  5.15266927083338 4.94502314814814  5.0166015625 4.83506944444445  L 0.204101562499955 0.946180555555548  C 0.0680338541666901 0.836226851851857  0 0.706018518518524  0 0.555555555555548  C 0 0.405092592592595  0.0680338541666901 0.274884259259262  0.204101562499955 0.164930555555548  C 0.340169270833335 0.0549768518518571  0.501302083333335 0  0.687499999999957 0  L 10.3125 0  C 10.4986979166667 0  10.6598307291667 0.0549768518518571  10.7958984375 0.164930555555548  Z " fill-rule="nonzero" fill="#cccccc" stroke="none" transform="matrix(1 0 0 1 2131 933 )" />
  </g>
</svg>