<?xml version="1.0" encoding="utf-8"?>
<svg version="1.1" xmlns:xlink="http://www.w3.org/1999/xlink" width="16px" height="15px" xmlns="http://www.w3.org/2000/svg">
  <g transform="matrix(1 0 0 1 -245 -123 )">
    <path d="M 15.4615384615385 5.37807183364839  C 15.8205128205128 5.43478260869565  16 5.57971014492754  16 5.81285444234405  C 16 5.95148078134846  15.9166666666667 6.10270951480781  15.75 6.26654064272212  L 12.2596153846154 9.6124763705104  L 13.0865384615385 14.3383742911153  C 13.0929487179487 14.3824826717076  13.0961538461538 14.4454946439824  13.0961538461538 14.5274102079395  C 13.0961538461538 14.6597353497164  13.0625 14.7715816005041  12.9951923076923 14.8629489603025  C 12.9278846153846 14.9543163201008  12.8301282051282 15  12.7019230769231 15  C 12.5801282051282 15  12.4519230769231 14.9621928166352  12.3173076923077 14.8865784499055  L 8 12.65595463138  L 3.68269230769231 14.8865784499055  C 3.54166666666667 14.9621928166352  3.41346153846154 15  3.29807692307692 15  C 3.16346153846154 15  3.0625 14.9543163201008  2.99519230769231 14.8629489603025  C 2.92788461538462 14.7715816005041  2.89423076923077 14.6597353497164  2.89423076923077 14.5274102079395  C 2.89423076923077 14.4896030245747  2.90064102564103 14.4265910522999  2.91346153846154 14.3383742911153  L 3.74038461538462 9.6124763705104  L 0.240384615384615 6.26654064272212  C 0.0801282051282051 6.09640831758034  0 5.94517958412098  0 5.81285444234405  C 0 5.57971014492754  0.179487179487179 5.43478260869565  0.538461538461538 5.37807183364839  L 5.36538461538462 4.68809073724008  L 7.52884615384615 0.387523629489602  C 7.65064102564103 0.1291745431632  7.80769230769231 0  8 0  C 8.19230769230769 0  8.34935897435897 0.1291745431632  8.47115384615385 0.387523629489602  L 10.6346153846154 4.68809073724008  L 15.4615384615385 5.37807183364839  Z " fill-rule="nonzero" fill="#facd91" stroke="none" transform="matrix(1 0 0 1 245 123 )" />
  </g>
</svg>