<?xml version="1.0" encoding="utf-8"?>
<svg version="1.1" xmlns:xlink="http://www.w3.org/1999/xlink" width="29px" height="27px" xmlns="http://www.w3.org/2000/svg">
  <g transform="matrix(1 0 0 1 -211 -1066 )">
    <path d="M 9.75961538461535 0.973557692307557  C 9.75961538461535 0.438100961538664  9.32043269230767 0  8.78365384615384 0  L 4.68461538461535 0  C 2.09831730769232 0  0 2.09314903846134  0 4.67307692307689  L 0 8.76201923076933  C 0 9.29747596153823  0.439182692307675 9.73557692307689  0.975961538461513 9.73557692307689  C 1.51274038461535 9.73557692307689  1.95192307692303 9.29747596153823  1.95192307692303 8.76201923076933  L 1.95192307692303 4.60353708791219  C 1.95192307692303 3.97072458791219  2.25168269230768 3.30314217032984  2.76754807692303 2.78159340659327  C 3.29038461538465 2.25309065934076  3.96658653846151 1.94711538461555  4.61490384615384 1.94711538461555  L 8.78365384615384 1.94711538461555  C 9.32043269230767 1.94711538461555  9.75961538461535 1.50901442307689  9.75961538461535 0.973557692307557  Z M 29 4.60353708791219  C 29 2.06533310439581  26.9295673076923 0  24.3850961538462 0  L 20.2163461538462 0  C 19.6795673076923 0  19.2403846153846 0.438100961538664  19.2403846153846 0.973557692307557  C 19.2403846153846 1.50901442307689  19.6795673076923 1.94711538461555  20.2163461538462 1.94711538461555  L 24.3850961538462 1.94711538461555  C 25.0334134615385 1.94711538461555  25.7096153846154 2.25309065934076  26.232451923077 2.78159340659327  C 26.7483173076923 3.30314217032984  27.048076923077 3.97072458791219  27.048076923077 4.60353708791219  L 27.048076923077 8.76201923076933  C 27.048076923077 9.29747596153823  27.4872596153846 9.73557692307689  28.0240384615385 9.73557692307689  C 28.5608173076923 9.73557692307689  29 9.29747596153823  29 8.76201923076933  L 29 4.60353708791219  Z M 9.75961538461535 25.7297390109891  C 9.75961538461535 25.1942822802197  9.32043269230767 24.7561813186811  8.78365384615384 24.7561813186811  L 4.61490384615384 24.7561813186811  C 3.96658653846151 24.7561813186811  3.29038461538465 24.4502060439559  2.76754807692303 23.9217032967034  C 2.25168269230768 23.4001545329668  1.95192307692303 22.7325721153844  1.95192307692303 22.0997596153844  L 1.95192307692303 17.9412774725273  C 1.95192307692303 17.4058207417584  1.51274038461535 16.9677197802197  0.975961538461513 16.9677197802197  C 0.439182692307675 16.9677197802197  0 17.4058207417584  0 17.9412774725273  L 0 22.0997596153844  C 0 24.6379635989008  2.07043269230768 26.7032967032966  4.61490384615384 26.7032967032966  L 8.78365384615384 26.7032967032966  C 9.32043269230767 26.7032967032966  9.75961538461535 26.265195741758  9.75961538461535 25.7297390109891  Z M 29 17.9412774725273  C 29 17.4058207417584  28.5608173076923 16.9677197802197  28.0240384615385 16.9677197802197  C 27.4872596153846 16.9677197802197  27.048076923077 17.4058207417584  27.048076923077 17.9412774725273  L 27.048076923077 22.0997596153844  C 27.048076923077 22.7325721153844  26.7483173076923 23.4001545329668  26.232451923077 23.9217032967034  C 25.7096153846154 24.4502060439559  25.0334134615385 24.7561813186811  24.3850961538462 24.7561813186811  L 20.2163461538462 24.7561813186811  C 19.6795673076923 24.7561813186811  19.2403846153846 25.1942822802197  19.2403846153846 25.7297390109891  C 19.2403846153846 26.265195741758  19.6795673076923 26.7032967032966  20.2163461538462 26.7032967032966  L 24.3153846153846 26.7032967032966  C 26.8947115384615 26.7032967032966  29 24.6101476648353  29 22.0302197802197  L 29 17.9412774725273  Z " fill-rule="nonzero" fill="#ffffff" stroke="none" transform="matrix(1 0 0 1 211 1066 )" />
  </g>
</svg>