<?xml version="1.0" encoding="utf-8"?>
<svg version="1.1" xmlns:xlink="http://www.w3.org/1999/xlink" width="16px" height="20px" xmlns="http://www.w3.org/2000/svg">
  <g transform="matrix(1 0 0 1 -369 -53 )">
    <path d="M 10.2942643391521 18.1496259351619  C 10.3840399002494 17.7456359102246  10.0748129675811 17.3566084788029  9.66084788029927 17.3566084788029  C 9.35660847880293 17.3566084788029  9.09226932668328 17.5660847880299  9.02743142144633 17.8653366583543  C 8.97755610972566 18.0897755610974  8.89276807980044 18.2743142144639  8.77805486284296 18.4089775561097  C 8.71321695760601 18.4837905236909  8.5236907730673 18.7032418952616  7.97506234413959 18.7032418952616  C 7.42643391521203 18.7032418952616  7.23690773067331 18.4788029925185  7.17206982543636 18.4089775561097  C 7.05735660847874 18.2743142144639  6.97256857855367 18.0897755610974  6.92269326683284 17.8653366583543  C 6.85785536159604 17.5660847880299  6.59351620947624 17.3566084788029  6.28927680798006 17.3566084788029  C 5.87032418952625 17.3566084788029  5.56608478802991 17.7456359102246  5.65586034912712 18.1496259351619  C 5.90523690773064 19.2618453865337  6.70324189526188 20  7.97506234413959 20  C 9.24688279301745 20  10.0448877805487 19.2668329177056  10.2942643391521 18.1496259351619  Z M 14.9825436408978 16.4089775561097  C 15.785536159601 16.4089775561097  16.2493765586035 15.4713216957607  15.7605985037406 14.8229426433918  C 14.9925187032419 13.8104738154616  13.4812967581047 13.2169576059847  13.4812967581047 8.68329177057361  C 13.4812967581047 4.02992518703225  11.426433915212 2.15960099750616  9.51122194513709 1.71072319201994  C 9.33167082294267 1.66583541147156  9.20199501246877 1.60598503740645  9.20199501246877 1.41645885286804  L 9.20199501246877 1.27182044887801  C 9.20199501246877 0.608478802992371  8.66334164588534 0.0448877805483789  8.00498753117214 0.0448877805483789  L 7.97506234413959 0.0448877805483789  C 7.31670822942639 0.0448877805483789  6.77805486284296 0.608478802992371  6.77805486284296 1.27182044887801  L 6.77805486284296 1.41645885286804  C 6.77805486284296 1.60099750623461  6.64837905236906 1.66583541147156  6.46882793017464 1.71072319201994  C 4.54862842892771 2.1645885286786  2.49875311720704 4.02992518703225  2.49875311720704 8.68329177057361  C 2.49875311720704 13.2169576059847  0.987531172069794 13.8054862842891  0.219451371571116 14.8229426433918  C -0.274314214463781 15.4763092269325  0.194513715710703 16.4089775561097  1.01246882793021 16.4089775561097  L 14.9825436408978 16.4089775561097  Z M 13.9700748129676 14.773067331671  C 14.0798004987531 14.9077306733167  13.9900249376559 15.1122194513719  13.8154613466334 15  L 2.18453865336657 15  C 1.99501246882786 15.1122194513719  1.89526184538651 14.8927680798006  2.01995012468827 14.7481296758106  C 2.36907730673314 14.3491271820452  2.75311720698255 13.8254364089777  3.06733167082287 13.082294264339  C 3.54613466334164 11.9551122194516  3.78054862842888 10.5137157107232  3.78054862842888 8.68329177057361  C 3.78054862842888 6.8229426433918  4.12967581047375 5.36658354114722  4.8229426433915 4.35411471321701  C 5.44139650872815 3.44638403990029  6.21446384039897 3.10224438902757  6.75311720698255 2.97755610972551  C 7.17206982543636 2.87780548628446  7.47132169576056 2.68827930174545  7.68079800498754 2.45386533665805  C 7.84039900249369 2.27431421446393  8.11471321695763 2.26433915211965  8.27431421446378 2.44389027431437  C 8.52867830423944 2.72817955112199  8.87281795511217 2.89775561097243  9.2119700748129 2.97755610972551  C 9.75062344139648 3.10224438902757  10.5236907730673 3.44638403990029  11.142144638404 4.35411471321701  C 11.8354114713217 5.36658354114722  12.1845386533666 6.8229426433918  12.1845386533666 8.68329177057361  C 12.1845386533666 10.5137157107232  12.4189526184538 11.9551122194516  12.8977556109726 13.082294264339  C 13.221945137157 13.8403990024938  13.6159600997506 14.374064837905  13.9700748129676 14.773067331671  Z " fill-rule="nonzero" fill="#606266" stroke="none" transform="matrix(1 0 0 1 369 53 )" />
  </g>
</svg>