<svg t="1665718158535" class="icon" viewBox="0 0 1024 1024" version="1.1" xmlns="http://www.w3.org/2000/svg" p-id="3898" width="64" height="64"><path d="M938.2 325.5c0 35.7-28.9 64.6-64.6 64.6H693.4c-35.7 0-64.6-28.9-64.6-64.6V225.3c0-35.7 28.9-64.6 64.6-64.6h180.1c35.7 0 64.6 28.9 64.6 64.6v100.2z" fill="#5FE0A3" p-id="3899"></path><path d="M966.6 488.8H742.9c-106.1 0-166.9 52.4-200.3 112.5h-10.2c-185 0-182.9-141.6-182.9-187.6V313.6c0-56.9-28.9-64.6-64.6-64.6h-50.6c-35.7 0-54.8 23.4-64.6 64.6S89.7 652 89.7 652v89.4h876.9V488.8z" fill="#FFE91F" p-id="3900"></path><path d="M197.4 741.4m-140 0a140 140 0 1 0 280 0 140 140 0 1 0-280 0Z" fill="#5FE0A3" p-id="3901"></path><path d="M826.6 741.4m-140 0a140 140 0 1 0 280 0 140 140 0 1 0-280 0Z" fill="#5FE0A3" p-id="3902"></path><path d="M966.6 467.8H742.8c-48.8 0-92.3 10.5-129.1 31.3-31.7 17.9-58.5 43.3-79.5 75.4-1.3 1.9-2.5 3.9-3.7 5.8-38-0.2-69.7-6.9-94-19.9-19.7-10.5-35.1-25.5-45.9-44.6-20.1-35.8-20.1-77.9-20.1-100.5V313.6c0-33.2-8.9-56.2-27.1-70.2-17.5-13.6-39.4-15.4-58.5-15.4h-50.6c-43.7 0-72.4 27.2-85.1 80.8-9 38-70.1 296.7-78.9 334-21.2 27.3-33.9 61.5-33.9 98.6 0 88.8 72.2 161 161 161 81.7 0 149.3-61.1 159.6-140h309.9c10.3 78.9 78 140 159.6 140 88.8 0 161-72.2 161-161V488.8c0.1-11.6-9.3-21-20.9-21zM190.1 318.5c10.1-42.6 27.2-48.5 44.2-48.5h50.6c16.8 0 26.9 2 32.8 6.6 7.2 5.5 10.8 18 10.8 37v101.7c0 24.6 0 75.8 25.5 121.2 14.7 26.2 35.8 46.7 62.7 61.1 25.7 13.7 56.9 21.8 92.9 24.1-14.1 34.4-21.3 69.5-23.6 98.8H357c-10.3-78.9-78-140-159.6-140-26.4 0-51.4 6.4-73.5 17.8 21.1-89 59.2-250.4 66.2-279.8z m7.3 541.9c-65.6 0-119-53.4-119-119s53.4-119 119-119 119 53.4 119 119-53.3 119-119 119z m629.2 0c-65.6 0-119-53.4-119-119s53.4-119 119-119 119 53.4 119 119-53.4 119-119 119z m0-280c-81.7 0-149.3 61.1-159.6 140H528.2c3.3-36.6 15.3-83.3 41.2-122.9 38-58.2 96.4-87.7 173.5-87.7h202.7V633c-29.5-32.3-71.9-52.6-119-52.6zM197.4 163.6h154c11.6 0 21-9.4 21-21s-9.4-21-21-21h-154c-11.6 0-21 9.4-21 21s9.4 21 21 21z" fill="#333333" p-id="3903"></path><path d="M197.4 709.1c-17.8 0-32.3 14.5-32.3 32.3 0 17.8 14.5 32.3 32.3 32.3 17.8 0 32.3-14.5 32.3-32.3 0-17.9-14.4-32.3-32.3-32.3zM826.6 709.1c-17.8 0-32.3 14.5-32.3 32.3 0 17.8 14.5 32.3 32.3 32.3 17.8 0 32.3-14.5 32.3-32.3 0-17.9-14.5-32.3-32.3-32.3zM693.4 411.1h180.1c47.2 0 85.6-38.4 85.6-85.6V225.3c0-47.2-38.4-85.6-85.6-85.6H693.4c-47.2 0-85.6 38.4-85.6 85.6v100.2c0 47.2 38.4 85.6 85.6 85.6z m-43.6-185.8c0-24.1 19.6-43.6 43.6-43.6h180.1c24 0 43.6 19.6 43.6 43.6v100.2c0 24.1-19.6 43.6-43.6 43.6H693.4c-24 0-43.6-19.6-43.6-43.6V225.3z" fill="#333333" p-id="3904"></path><path d="M703.4 242.2h155.1v42H703.4z" fill="#333333" p-id="3905"></path></svg>