<?xml version="1.0" encoding="utf-8"?>
<svg version="1.1" xmlns:xlink="http://www.w3.org/1999/xlink" width="24px" height="24px" xmlns="http://www.w3.org/2000/svg">
  <g transform="matrix(1 0 0 1 -39 -161 )">
    <path d="M 23.9999999664993 24  C 24.0003315089893 19.5708166848985  21.5397849587726 15.5048109523125  17.6066276308966 13.4350754856361  C 16.1085559353642 14.7439588724413  14.1511213022787 15.5374800998413  12.0000000629201 15.5374800998413  C 9.84887882356151 15.5374800998413  7.8897301213266 14.7439588724413  6.39165842579423 13.4350754856361  C 2.45916476863322 15.5052709091569  -0.000667217487531077 19.5711858989938  0 24  L 23.9999999664993 24  Z M 5.00157129418663 7.07666672512374  C 5.00157084390162 10.9253340566036  8.13432013241476 14.0458237137588  12.0000000629201 14.0477079984378  C 15.8644563842949 14.0467661481968  18.9967156021987 10.9275286758654  18.9967156021987 7.08007991433359  C 18.9967156021987 7.07894218454352  18.9967153223005 7.07780445477732  18.9967147625042 7.07666672512374  C 18.9972860944178 7.04032336294969  18.9975717734935 7.00397610611769  18.9975717734935 6.96762829287659  C 18.9975717734935 3.11951344423128  15.8642684970681 0  11.9991430283454 0  C 8.13401755962265 0  5.00071428319731 3.11951344423128  5.00071428319731 6.96762829287659  C 5.00071428319731 7.00397610611769  5.00099996227298 7.04032336294969  5.00157129418663 7.07666672512374  Z " fill-rule="nonzero" fill="#cccccc" stroke="none" transform="matrix(1 0 0 1 39 161 )" />
  </g>
</svg>