<?xml version="1.0" encoding="utf-8"?>
<svg version="1.1" xmlns:xlink="http://www.w3.org/1999/xlink" width="19px" height="24px" xmlns="http://www.w3.org/2000/svg">
  <g transform="matrix(1 0 0 1 -38 -220 )">
    <path d="M 14.2514450955986 9.99863107732898  L 4.75144509559861 9.99863107732898  L 4.75144509559861 7.01163586499985  C 4.7601156127021 6.1765913723821  5.04046243594307 2.00136893604878  9.50289019119723 2.00136893604878  C 13.9653179464514 2.00136893604878  14.2427745784951 6.1765913723821  14.2543352867958 6.9979466338305  L 14.2514450955986 9.99863107732898  Z M 11.3988439235211 15.9972621234432  C 11.4017341147183 16.7337439964596  11.0173410297474 17.3716632231191  10.4508670573592 17.7193702727399  L 10.4508670573592 20.9965776621077  L 8.55202313383806 20.9965776621077  L 8.55202313383806 17.7193702727399  C 7.98554913320576 17.3716632231191  7.60115607647889 16.7337439964596  7.60115607647889 15.9972621234432  C 7.60115607647889 14.8911703934772  8.45086706330529 13.9958931873944  9.5 13.9958931873944  C 10.5491329366947 13.9958931873944  11.3988439235211 14.8911703934772  11.3988439235211 15.9972621234432  Z M 19 9.99863107732898  L 16.1502890191197 9.99863107732898  L 16.1502890191197 6.99794660707495  C 16.1502890191197 6.99794660707495  16.1502890191197 0  9.5 0  C 2.84971098088028 0  2.84971098088028 6.99794660707495  2.84971098088028 6.99794660707495  L 2.84971098088028 9.99863107732898  L 0 9.99863107732898  L 0 24  L 19 24  L 19 9.99863107732898  Z " fill-rule="nonzero" fill="#cccccc" stroke="none" transform="matrix(1 0 0 1 38 220 )" />
  </g>
</svg>