<?xml version="1.0" encoding="utf-8"?>
<svg version="1.1" xmlns:xlink="http://www.w3.org/1999/xlink" width="300px" height="50px" xmlns="http://www.w3.org/2000/svg">
  <g transform="matrix(1 0 0 1 -25 -207 )">
    <path d="M 26 210  A 2 2 0 0 1 28 208 L 322 208  A 2 2 0 0 1 324 210 L 324 254  A 2 2 0 0 1 322 256 L 28 256  A 2 2 0 0 1 26 254 L 26 210  Z " fill-rule="nonzero" fill="#ffffff" stroke="none" fill-opacity="0.498039215686275" />
    <path d="M 25.5 210  A 2.5 2.5 0 0 1 28 207.5 L 322 207.5  A 2.5 2.5 0 0 1 324.5 210 L 324.5 254  A 2.5 2.5 0 0 1 322 256.5 L 28 256.5  A 2.5 2.5 0 0 1 25.5 254 L 25.5 210  Z " stroke-width="1" stroke="#cccccc" fill="none" stroke-opacity="0.698039215686274" />
  </g>
</svg>