<?xml version="1.0" encoding="utf-8"?>
<svg version="1.1" xmlns:xlink="http://www.w3.org/1999/xlink" width="300px" height="50px" xmlns="http://www.w3.org/2000/svg">
  <g transform="matrix(1 0 0 1 -25 -207 )">
    <path d="M 26.5 210  A 1.5 1.5 0 0 1 28 208.5 L 322 208.5  A 1.5 1.5 0 0 1 323.5 210 L 323.5 254  A 1.5 1.5 0 0 1 322 255.5 L 28 255.5  A 1.5 1.5 0 0 1 26.5 254 L 26.5 210  Z " fill-rule="nonzero" fill="#ffffff" stroke="none" fill-opacity="0" />
    <path d="M 26 210  A 2 2 0 0 1 28 208 L 322 208  A 2 2 0 0 1 324 210 L 324 254  A 2 2 0 0 1 322 256 L 28 256  A 2 2 0 0 1 26 254 L 26 210  Z " stroke-width="2" stroke="#1890ff" fill="none" />
  </g>
</svg>